<?xml version="1.0" encoding="UTF-8" standalone="no"?>
<!-- Generator: Gravit.io -->
<svg xmlns="http://www.w3.org/2000/svg" xmlns:xlink="http://www.w3.org/1999/xlink" style="isolation:isolate" viewBox="755 465.5 36 36" width="36pt" height="36pt"><g><path d=" M 791 483.5 C 791 493.441 782.941 501.5 773 501.5 C 763.06 501.5 755 493.441 755 483.5 C 755 473.56 763.06 465.5 773 465.5 C 782.941 465.5 791 473.56 791 483.5 Z " fill="rgb(255,204,77)"/><g><g><path d=" M 778.485 493.379 C 778.474 493.335 777.34 489 773 489 C 768.66 489 767.526 493.335 767.515 493.379 C 767.462 493.592 767.559 493.81 767.747 493.923 C 767.935 494.035 768.18 494.009 768.343 493.863 C 768.352 493.856 769.356 493 773 493 C 776.59 493 777.617 493.83 777.656 493.863 C 777.751 493.954 777.875 494 778 494 C 778.084 494 778.169 493.979 778.246 493.936 C 778.442 493.825 778.54 493.597 778.485 493.379 Z " fill="rgb(102,69,0)"/></g><path d=" M 777 485.5 L 781 485.5 L 781 500.5 L 777 500.464 L 777 485.5 Z " fill="rgb(93,173,236)"/><path d=" M 765 500.5 L 769 500.464 L 769 485.5 L 765 485.5 L 765 500.5 Z " fill="rgb(93,173,236)"/><ellipse vector-effect="non-scaling-stroke" cx="773.0000000000001" cy="499.5" rx="18" ry="2" fill="rgb(93,173,236)"/></g><path d=" M 770.707 482.793 C 767.452 479.538 762.221 479.5 762 479.5 C 761.448 479.5 761.001 479.947 761.001 480.498 C 761 481.05 761.447 481.498 761.999 481.5 C 762.028 481.5 763.924 481.522 765.982 482.237 C 765.389 482.877 765 483.871 765 485 C 765 486.934 766.119 488.5 767.5 488.5 C 768.881 488.5 770 486.934 770 485 C 770 484.826 769.981 484.66 769.963 484.493 C 769.976 484.493 769.988 484.5 770 484.5 C 770.256 484.5 770.512 484.402 770.707 484.207 C 771.098 483.816 771.098 483.184 770.707 482.793 Z " fill="rgb(102,69,0)"/><path d=" M 784 479.5 C 783.779 479.5 778.549 479.538 775.293 482.793 C 774.902 483.184 774.902 483.816 775.293 484.207 C 775.488 484.402 775.744 484.5 776 484.5 C 776.013 484.5 776.024 484.493 776.036 484.493 C 776.02 484.66 776 484.826 776 485 C 776 486.934 777.119 488.5 778.5 488.5 C 779.881 488.5 781 486.934 781 485 C 781 483.871 780.611 482.877 780.018 482.237 C 782.076 481.522 783.972 481.5 784.002 481.5 C 784.553 481.498 785 481.05 784.999 480.498 C 784.998 479.947 784.552 479.5 784 479.5 Z " fill="rgb(102,69,0)"/></g></svg>