<?xml version="1.0" encoding="UTF-8" standalone="no"?>
<!-- Generator: Gravit.io -->
<svg xmlns="http://www.w3.org/2000/svg" xmlns:xlink="http://www.w3.org/1999/xlink" style="isolation:isolate" viewBox="623 560.5 36 36" width="36pt" height="36pt"><g><path d=" M 659 578.5 C 659 588.441 650.941 596.5 641 596.5 C 631.06 596.5 623 588.441 623 578.5 C 623 568.56 631.06 560.5 641 560.5 C 650.941 560.5 659 568.56 659 578.5 Z " fill="rgb(255,204,77)"/><circle vector-effect="non-scaling-stroke" cx="652" cy="582.5" r="5" fill="rgb(255,120,146)"/><circle vector-effect="non-scaling-stroke" cx="630" cy="582.5" r="5" fill="rgb(255,120,146)"/><circle vector-effect="non-scaling-stroke" cx="647.5" cy="576" r="5.5" fill="rgb(245,248,250)"/><circle vector-effect="non-scaling-stroke" cx="634.5" cy="576" r="5.5" fill="rgb(245,248,250)"/><circle vector-effect="non-scaling-stroke" cx="634.5" cy="576" r="2.5" fill="rgb(41,47,51)"/><circle vector-effect="non-scaling-stroke" cx="647.5" cy="576" r="2.5" fill="rgb(41,47,51)"/><path d=" M 645 588.5 L 637 588.5 C 636.448 588.5 636 588.053 636 587.5 C 636 586.947 636.448 586.5 637 586.5 L 645 586.5 C 645.553 586.5 646 586.947 646 587.5 C 646 588.053 645.553 588.5 645 588.5 Z " fill="rgb(102,69,0)"/><path d=" M 653.001 571.5 C 652.696 571.5 652.397 571.362 652.2 571.1 C 649.56 567.579 646.139 567.502 645.994 567.5 C 645.444 567.494 645 567.044 645.003 566.495 C 645.006 565.944 645.45 565.5 646 565.5 C 646.184 565.5 650.537 565.55 653.8 569.9 C 654.132 570.342 654.042 570.969 653.6 571.3 C 653.42 571.435 653.21 571.5 653.001 571.5 Z " fill="rgb(102,69,0)"/><path d=" M 628.999 571.5 C 628.791 571.5 628.58 571.435 628.4 571.3 C 627.958 570.969 627.869 570.342 628.2 569.9 C 631.462 565.55 635.816 565.5 636 565.5 C 636.552 565.5 637 565.948 637 566.5 C 637 567.051 636.555 567.498 636.004 567.5 C 635.849 567.502 632.436 567.586 629.8 571.1 C 629.604 571.362 629.303 571.5 628.999 571.5 Z " fill="rgb(102,69,0)"/></g><g><path d=" M 638.391 580.58 C 637.938 580.385 637.412 580.553 637.152 580.97 L 632.152 588.97 C 631.96 589.279 631.949 589.667 632.126 589.985 C 632.302 590.303 632.636 590.5 633 590.5 L 636 590.5 C 636.459 590.5 636.859 590.188 636.97 589.742 L 638.97 581.742 C 639.089 581.266 638.844 580.772 638.391 580.58 Z  M 649.848 588.97 L 644.848 580.97 C 644.586 580.552 644.061 580.386 643.61 580.58 C 643.157 580.772 642.911 581.266 643.031 581.742 L 645.031 589.742 C 645.142 590.188 645.541 590.5 646 590.5 L 649 590.5 C 649.363 590.5 649.698 590.303 649.875 589.984 C 650.051 589.667 650.041 589.278 649.848 588.97 Z " fill="rgb(245,248,250)"/><path d=" M 654.982 590.678 C 654.985 590.618 655 590.561 655 590.5 C 655 588.844 653.656 587.5 652 587.5 C 650.973 587.5 650.068 588.018 649.527 588.805 C 649.057 588.61 648.541 588.5 648 588.5 C 645.791 588.5 644 590.291 644 592.5 C 644 594.709 645.791 596.5 648 596.5 C 649.365 596.5 650.568 595.813 651.29 594.769 C 651.77 595.789 652.798 596.5 654 596.5 C 655.657 596.5 657 595.157 657 593.5 C 657 592.188 656.154 591.086 654.982 590.678 Z  M 634 588.5 C 633.458 588.5 632.944 588.61 632.473 588.805 C 631.932 588.018 631.027 587.5 630 587.5 C 628.344 587.5 627 588.844 627 590.5 C 627 590.561 627.014 590.618 627.018 590.678 C 625.846 591.086 625 592.188 625 593.5 C 625 595.157 626.343 596.5 628 596.5 C 629.202 596.5 630.231 595.789 630.709 594.769 C 631.432 595.813 632.634 596.5 634 596.5 C 636.209 596.5 638 594.709 638 592.5 C 638 590.291 636.209 588.5 634 588.5 Z " fill="rgb(225,232,237)"/></g></svg>