<?xml version="1.0" encoding="UTF-8" standalone="no"?>
<!-- Generator: Gravit.io -->
<svg xmlns="http://www.w3.org/2000/svg" xmlns:xlink="http://www.w3.org/1999/xlink" style="isolation:isolate" viewBox="591.983 494.883 36 36" width="36pt" height="36pt"><g><path d=" M 627.983 512.883 C 627.983 522.824 619.924 530.883 609.983 530.883 C 600.042 530.883 591.983 522.824 591.983 512.883 C 591.983 502.942 600.042 494.883 609.983 494.883 C 619.924 494.883 627.983 502.942 627.983 512.883 Z " fill="rgb(255,204,77)"/><circle vector-effect="non-scaling-stroke" cx="598.982694706602" cy="515.8833920336435" r="5" fill="rgb(255,120,146)"/><circle vector-effect="non-scaling-stroke" cx="620.982694706602" cy="515.8833920336435" r="5" fill="rgb(255,120,146)"/></g><g><circle vector-effect="non-scaling-stroke" cx="620.982694706602" cy="517.8833920336435" r="5" fill="rgb(255,120,146)"/><circle vector-effect="non-scaling-stroke" cx="598.982694706602" cy="517.8833920336435" r="5" fill="rgb(255,120,146)"/><circle vector-effect="non-scaling-stroke" cx="616.482694706602" cy="511.38339203364353" r="5.5" fill="rgb(245,248,250)"/><circle vector-effect="non-scaling-stroke" cx="603.482694706602" cy="511.38339203364353" r="5.5" fill="rgb(245,248,250)"/><circle vector-effect="non-scaling-stroke" cx="603.482694706602" cy="511.38339203364353" r="2.5" fill="rgb(41,47,51)"/><circle vector-effect="non-scaling-stroke" cx="616.482694706602" cy="511.38339203364353" r="2.5" fill="rgb(41,47,51)"/><path d=" M 621.984 505.883 C 621.679 505.883 621.38 505.745 621.183 505.483 C 618.543 501.962 615.122 501.885 614.977 501.883 C 614.427 501.877 613.983 501.427 613.986 500.878 C 613.989 500.327 614.433 499.883 614.983 499.883 C 615.167 499.883 619.52 499.933 622.783 504.283 C 623.115 504.725 623.025 505.352 622.583 505.683 C 622.403 505.818 622.193 505.883 621.984 505.883 Z " fill="rgb(102,69,0)"/><path d=" M 597.982 505.883 C 597.774 505.883 597.563 505.818 597.383 505.683 C 596.941 505.352 596.852 504.725 597.183 504.283 C 600.445 499.933 604.799 499.883 604.983 499.883 C 605.535 499.883 605.983 500.331 605.983 500.883 C 605.983 501.434 605.538 501.881 604.987 501.883 C 604.832 501.885 601.419 501.969 598.783 505.483 C 598.587 505.745 598.286 505.883 597.982 505.883 Z " fill="rgb(102,69,0)"/></g><g><path d=" M 614.483 519.883 L 609.983 519.883 C 604.383 519.883 602.983 518.883 602.983 518.883 C 602.983 518.883 604.25 522.477 609.162 522.846 C 609.266 522.869 609.373 522.883 609.483 522.883 L 613.983 522.883 C 614.808 522.883 615.983 521.708 615.983 520.883 C 615.983 520.058 615.308 519.883 614.483 519.883 Z " fill="rgb(102,69,0)"/><path d=" M 614.983 520.883 L 611.983 520.883 C 611.433 520.883 610.983 521.333 610.983 521.883 L 610.983 525.883 C 610.983 526.433 611.433 526.883 611.983 526.883 C 612.533 526.883 612.983 526.433 612.983 525.883 L 612.983 529.383 C 612.983 530.208 613.658 530.883 614.483 530.883 C 615.308 530.883 615.983 530.208 615.983 529.383 L 615.983 521.883 C 615.983 521.333 615.533 520.883 614.983 520.883 Z " fill="rgb(136,201,249)"/></g></svg>