<?xml version="1.0" encoding="UTF-8" standalone="no"?>
<!-- Generator: Gravit.io -->
<svg xmlns="http://www.w3.org/2000/svg" xmlns:xlink="http://www.w3.org/1999/xlink" style="isolation:isolate" viewBox="0 0 45 45" width="45pt" height="45pt"><defs><clipPath id="_clipPath_ORyap7Jc2GU0coSzgkg0AVP6o3Bw0APm"><rect width="45" height="45"/></clipPath></defs><g clip-path="url(#_clipPath_ORyap7Jc2GU0coSzgkg0AVP6o3Bw0APm)"><g><g><clipPath id="_clipPath_jXFjJkgRscjN0fkO5SLPtWrbCFFpq9u6"><path d=" M 2.041 0 L 45 0 L 45 45 L 2.041 45 L 2.041 0 Z " fill="rgb(255,255,255)"/></clipPath><g clip-path="url(#_clipPath_jXFjJkgRscjN0fkO5SLPtWrbCFFpq9u6)"><g><g><path d=" M 45 21.516 C 45 33.398 35.367 43.031 23.484 43.031 C 11.603 43.031 1.969 33.398 1.969 21.516 C 1.969 9.634 11.603 0 23.484 0 C 35.367 0 45 9.634 45 21.516 Z " fill="rgb(255,204,77)"/></g><g><path d=" M 20.445 18.904 C 20.373 18.742 18.653 14.963 15.117 14.963 C 11.583 14.963 9.862 18.742 9.79 18.904 C 9.68 19.151 9.752 19.44 9.962 19.61 C 10.174 19.781 10.472 19.786 10.691 19.627 C 10.707 19.616 12.2 18.549 15.117 18.549 C 18.017 18.549 19.509 19.602 19.542 19.626 C 19.648 19.705 19.774 19.744 19.899 19.744 C 20.03 19.744 20.163 19.701 20.27 19.614 C 20.484 19.444 20.555 19.152 20.445 18.904 Z " fill="rgb(102,69,0)"/></g><g><path d=" M 39.023 16.137 C 39.023 20.428 35.545 23.906 31.254 23.906 C 26.963 23.906 23.484 20.428 23.484 16.137 C 23.484 11.846 26.963 8.367 31.254 8.367 C 35.545 8.367 39.023 11.846 39.023 16.137 Z " fill="rgb(245,248,250)"/></g><g><path d=" M 34.242 16.137 C 34.242 17.787 32.905 19.125 31.254 19.125 C 29.603 19.125 28.266 17.787 28.266 16.137 C 28.266 14.486 29.603 13.148 31.254 13.148 C 32.905 13.148 34.242 14.486 34.242 16.137 Z " fill="rgb(41,47,51)"/></g><g><path d=" M 10.336 25.415 C 10.336 30.153 15.83 36.173 23.484 36.173 C 31.139 36.173 36.633 30.196 36.633 25.415 C 36.633 25.415 24.282 28.709 10.336 25.415 Z " fill="rgb(102,69,0)"/></g><g><path d=" M 16.313 27.495 L 16.313 35.816 C 16.313 39.402 18.703 42.988 23.484 42.988 C 28.266 42.988 30.656 39.402 30.656 35.816 L 30.656 27.544 C 23.137 29.089 16.313 27.495 16.313 27.495 Z " fill="rgb(231,90,112)"/></g></g></g></g></g><g><g><clipPath id="_clipPath_pM8l5QifkLv5EXlm3RUJcHTF1mdS0pLQ"><path d=" M 0 8.731 L 38.021 8.731 L 38.021 45 L 0 45 L 0 8.731 Z " fill="rgb(255,255,255)"/></clipPath><g clip-path="url(#_clipPath_pM8l5QifkLv5EXlm3RUJcHTF1mdS0pLQ)"><g><g><path d=" M 35.115 42.446 C 35.115 42.446 36.315 42.665 36.315 43.723 C 36.315 44.783 35.255 45 34.196 45 L 16.183 45 C 14.064 45 10.17 40.934 8.137 40.934 L 7.535 45 L 1.021 45 L 1.021 42.015 C 1.021 39.897 0.126 39.693 0.126 38.751 C 0.126 36.633 0.809 34.285 0.809 34.285 L 7.666 34.6 L 17.286 41.95 L 35.115 42.446 Z " fill="rgb(102,33,19)"/></g><g><path d=" M 1.7 36.137 C 4.787 36.88 8.137 37.884 15.9 41.605 C 15.9 41.605 17.933 42.967 20.336 42.967 L 35.115 42.967 C 35.115 42.967 36.315 42.706 36.315 40.503 C 36.315 39.401 28.277 37.066 25.875 35.964 C 23.475 34.862 19.323 29.543 19.323 29.543 C 19.323 29.543 19.15 43.403 11.945 35.693 C 4.74 27.979 7.495 29.146 5.093 29.146 C 4.599 29.146 1.293 30.475 0.473 34.268 C 0.356 34.81 0.822 35.924 1.7 36.137 Z " fill="rgb(193,105,79)"/></g><g><path d=" M 2.407 30.768 C 2.407 30.768 3.424 28.735 3.424 26.702 C 3.424 24.669 2.407 9.421 2.407 9.421 C 2.407 9.421 7.406 8.404 12.573 8.404 C 17.741 8.404 19.688 9.421 19.688 9.421 C 19.688 9.421 13.589 24.669 21.722 32.801 C 24.314 35.393 19.688 39.917 19.688 39.917 C 19.688 39.917 18.672 41.95 15.622 39.917 C 12.573 37.884 2.407 30.768 2.407 30.768 Z " fill="rgb(193,105,79)"/></g><path d=" M 10.17 28.735 L 8.137 28.735 L 8.137 8.404 L 10.17 8.404 L 10.17 28.735 Z " fill="rgb(217,158,130)"/></g></g></g></g><g><g><clipPath id="_clipPath_aSY8RzWNj4M23VKiGvU5da9jiIl3FzJW"><path d=" M 30.831 29.74 L 44.586 29.74 L 44.586 43.496 L 30.831 43.496 L 30.831 29.74 Z " fill="rgb(255,255,255)"/></clipPath><g clip-path="url(#_clipPath_aSY8RzWNj4M23VKiGvU5da9jiIl3FzJW)"><g><g><path d=" M 39.564 30.029 L 33.84 32.424 L 38.63 36.143 C 39.636 36.993 41.067 37.265 42.363 36.723 C 44.207 35.952 45.075 33.828 44.301 31.98 C 43.529 30.131 41.407 29.258 39.564 30.029 Z " fill="rgb(93,173,236)"/></g><g><path d=" M 35.757 36.878 L 31.614 33.669 L 30.883 38.731 C 30.679 39.822 31.075 40.986 32.013 41.712 C 33.348 42.746 35.268 42.502 36.302 41.167 C 37.336 39.833 37.092 37.913 35.757 36.878 Z " fill="rgb(93,173,236)"/></g><g><path d=" M 41.618 39.559 L 38.502 37.767 L 38.489 41.291 C 38.456 42.055 38.835 42.812 39.54 43.217 C 40.545 43.795 41.824 43.444 42.397 42.434 C 42.971 41.423 42.623 40.136 41.618 39.559 Z " fill="rgb(93,173,236)"/></g></g></g></g></g><g><path d=" M 15.809 7.724 L 12.059 7.724 C 11.372 7.724 10.809 8.286 10.809 8.974 L 10.809 13.974 C 10.809 14.661 11.372 15.224 12.059 15.224 C 12.747 15.224 13.309 14.661 13.309 13.974 L 13.309 18.349 C 13.309 19.38 14.153 20.224 15.184 20.224 C 16.216 20.224 17.059 19.38 17.059 18.349 L 17.059 12.724 L 17.059 9.599 L 17.059 8.974 C 17.059 8.286 16.497 7.724 15.809 7.724 Z " fill="rgb(93,173,236)"/></g></g></svg>