<?xml version="1.0" encoding="UTF-8" standalone="no"?>
<!-- Generator: Gravit.io -->
<svg xmlns="http://www.w3.org/2000/svg" xmlns:xlink="http://www.w3.org/1999/xlink" style="isolation:isolate" viewBox="978.89 439 34.22 35.131" width="34.22pt" height="35.131pt"><g><circle vector-effect="non-scaling-stroke" cx="996" cy="456" r="17" fill="rgb(255,203,76)"/><path d=" M 992.524 460.018 C 992.379 459.902 992.266 459.744 992.212 459.554 C 992.078 459.094 992.342 458.636 992.802 458.533 C 997.33 457.512 1000.379 459.896 1000.508 459.998 C 1000.892 460.304 1000.967 460.843 1000.681 461.203 C 1000.395 461.561 999.853 461.604 999.47 461.3 C 999.36 461.216 996.947 459.377 993.288 460.202 C 993.014 460.263 992.734 460.186 992.524 460.018 Z " fill="rgb(101,71,27)"/><ellipse vector-effect="non-scaling-stroke" cx="991.119" cy="450.15599999999995" rx="2.125" ry="2.656000000000006" fill="rgb(101,71,27)"/><ellipse vector-effect="non-scaling-stroke" cx="1002.375" cy="451.21799999999996" rx="2.125" ry="2.656000000000006" fill="rgb(101,71,27)"/><path d=" M 987.097 474.131 C 987.097 474.131 988.233 474.072 988.577 473.331 C 988.934 472.566 988.319 472.229 988.319 472.229 C 988.319 472.229 989.225 472.287 989.592 471.352 C 989.937 470.47 989.182 470.036 989.182 470.036 C 989.182 470.036 990.072 469.92 990.362 468.99 C 990.606 468.206 989.856 467.59 989.856 467.59 C 989.856 467.59 994.287 467.697 994.741 467.712 C 995.194 467.727 995.967 467.496 995.999 466.55 C 996.032 465.603 995.252 465.36 994.819 465.346 C 994.386 465.332 988.904 465.147 987.012 465.084 L 985.75 465.042 C 985.276 465.027 985.126 464.777 985.529 464.53 C 986.067 464.199 986.467 463.782 986.778 462.994 C 987.105 462.165 987.098 461.032 987.042 460.578 C 986.937 459.735 986.577 458.994 986.03 458.626 C 985.178 458.053 984.353 458.461 984.412 459.574 C 984.5 461.239 983.836 462.407 982.774 462.935 C 980.274 464.175 978.993 465.193 978.894 468.068 C 978.786 471.203 981.208 473.889 984.344 473.996 L 987.097 474.131 Z " fill="rgb(241,144,32)"/><path d=" M 1004.903 474.043 C 1004.903 474.043 1003.767 473.983 1003.423 473.242 C 1003.066 472.478 1003.681 472.141 1003.681 472.141 C 1003.681 472.141 1002.775 472.199 1002.408 471.264 C 1002.063 470.382 1002.818 469.947 1002.818 469.947 C 1002.818 469.947 1001.928 469.832 1001.638 468.901 C 1001.394 468.118 1002.144 467.502 1002.144 467.502 C 1002.144 467.502 997.713 467.608 997.259 467.624 C 996.806 467.639 996.033 467.408 996.001 466.461 C 995.968 465.514 996.748 465.272 997.181 465.258 C 997.614 465.243 1003.096 465.059 1004.988 464.996 L 1006.25 464.953 C 1006.724 464.939 1006.874 464.689 1006.471 464.441 C 1005.933 464.111 1005.533 463.693 1005.222 462.906 C 1004.895 462.077 1004.902 460.944 1004.958 460.49 C 1005.063 459.647 1005.423 458.906 1005.97 458.538 C 1006.822 457.964 1007.647 458.373 1007.588 459.486 C 1007.5 461.151 1008.164 462.319 1009.226 462.847 C 1011.726 464.086 1013.007 465.104 1013.106 467.979 C 1013.214 471.115 1010.792 473.8 1007.656 473.908 L 1004.903 474.043 Z " fill="rgb(241,144,32)"/></g><g><path d=" M 1007.666 450.385 C 1006.813 452.979 1004.373 454.84 1001.529 454.84 C 1001.393 454.84 1001.256 454.836 1001.118 454.827 C 999.722 454.739 998.432 454.208 997.385 453.33 C 997.419 453.798 997.457 454.272 997.514 454.786 C 997.658 456.097 998.349 457.131 999.514 457.775 C 1000.288 458.204 1001.214 458.425 1002.172 458.485 C 1003.81 458.588 1005.545 458.221 1006.777 457.626 C 1008.078 456.998 1008.924 455.867 1009.097 454.522 C 1009.27 453.185 1008.763 451.759 1007.666 450.385 Z " fill="rgb(255,255,255)"/><path d=" M 999.176 446.147 C 997.951 446.666 997.336 448.321 997.308 451.145 L 997.345 451.209 C 998.192 452.455 999.587 453.311 1001.208 453.413 C 1001.316 453.419 1001.423 453.423 1001.53 453.423 C 1004.019 453.423 1006.112 451.593 1006.494 449.148 C 1006.385 449.049 1006.285 448.948 1006.17 448.849 C 1002.659 445.854 1000.059 445.771 999.176 446.147 Z " fill="rgb(101,71,27)"/><path d=" M 1001.529 454.84 C 1004.373 454.84 1006.813 452.979 1007.666 450.385 C 1007.331 449.966 1006.937 449.553 1006.493 449.148 C 1006.111 451.593 1004.018 453.423 1001.529 453.423 C 1001.422 453.423 1001.315 453.419 1001.207 453.413 C 999.586 453.311 998.191 452.455 997.344 451.209 L 997.307 451.145 C 997.3 451.807 997.327 452.537 997.385 453.33 C 998.432 454.208 999.722 454.739 1001.118 454.827 C 1001.256 454.837 1001.393 454.84 1001.529 454.84 Z " fill="rgb(244,144,12)"/><circle vector-effect="non-scaling-stroke" cx="999.2347490411485" cy="449.09685812376347" r="1.046087292231391" fill="rgb(255,255,255)"/><path d=" M 990.49 454.84 C 987.647 454.84 985.207 452.979 984.353 450.385 C 983.256 451.759 982.75 453.185 982.922 454.521 C 983.096 455.866 983.941 456.998 985.243 457.625 C 986.474 458.22 988.208 458.587 989.847 458.484 C 990.805 458.424 991.731 458.204 992.506 457.774 C 993.669 457.13 994.361 456.096 994.505 454.785 C 994.562 454.272 994.6 453.8 994.634 453.333 C 993.591 454.205 992.3 454.738 990.901 454.826 C 990.763 454.837 990.626 454.84 990.49 454.84 Z " fill="rgb(255,255,255)"/><path d=" M 990.49 453.423 C 990.597 453.423 990.704 453.419 990.812 453.413 C 992.433 453.311 993.828 452.455 994.675 451.209 L 994.712 451.145 C 994.683 448.321 994.07 446.666 992.844 446.147 C 991.961 445.771 989.36 445.854 985.85 448.848 C 985.735 448.947 985.636 449.048 985.526 449.147 C 985.908 451.593 988.001 453.423 990.49 453.423 Z " fill="rgb(101,71,27)"/><path d=" M 994.711 451.145 L 994.674 451.209 C 993.827 452.455 992.432 453.311 990.811 453.413 C 990.704 453.419 990.596 453.423 990.489 453.423 C 988 453.423 985.907 451.593 985.525 449.148 C 985.081 449.553 984.687 449.966 984.352 450.385 C 985.206 452.979 987.646 454.84 990.489 454.84 C 990.625 454.84 990.762 454.836 990.9 454.827 C 992.299 454.739 993.59 454.206 994.633 453.334 C 994.691 452.539 994.719 451.809 994.711 451.145 Z " fill="rgb(244,144,12)"/><path d=" M 988.243 450.141 C 988.819 450.105 989.258 449.608 989.221 449.032 C 989.185 448.455 988.688 448.017 988.111 448.053 C 987.535 448.089 987.097 448.586 987.132 449.162 C 987.169 449.738 987.666 450.177 988.243 450.141 Z " fill="rgb(255,255,255)"/></g><path d=" M 986.077 444.06 C 985.935 444.18 985.828 444.342 985.779 444.532 C 985.657 444.996 985.934 445.447 986.396 445.537 C 990.951 446.433 993.933 443.964 994.058 443.859 C 994.432 443.542 994.495 443.001 994.198 442.649 C 993.902 442.298 993.36 442.27 992.984 442.584 C 992.877 442.671 990.515 444.578 986.836 443.854 C 986.562 443.801 986.283 443.886 986.077 444.06 Z " fill="rgb(101,71,27)"/><path d=" M 998.358 442.39 C 998.176 442.433 998.007 442.528 997.877 442.675 C 997.557 443.032 997.598 443.56 997.969 443.85 C 1001.615 446.723 1005.394 445.885 1005.553 445.847 C 1006.031 445.736 1006.334 445.283 1006.229 444.834 C 1006.126 444.387 1005.656 444.115 1005.179 444.223 C 1005.044 444.252 1002.073 444.873 999.127 442.553 C 998.907 442.381 998.62 442.329 998.358 442.39 Z " fill="rgb(101,71,27)"/></svg>