<?xml version="1.0" encoding="UTF-8" standalone="no"?>
<!-- Generator: Gravit.io -->
<svg xmlns="http://www.w3.org/2000/svg" xmlns:xlink="http://www.w3.org/1999/xlink" style="isolation:isolate" viewBox="789.998 462 36.002 36" width="36.002pt" height="36pt"><g><path d=" M 825.733 481.927 C 825.374 478.658 824.999 476.998 823.999 474.998 C 823.999 474.998 826.999 465.998 824.999 462.298 C 824.325 461.052 817.595 463.986 814.999 465.998 C 814.999 465.998 810.999 465 807.999 465 C 804.999 465 800.999 465.998 800.999 465.998 C 798.403 463.986 791.673 461.052 790.999 462.298 C 788.999 465.998 791.999 474.998 791.999 474.998 C 790.999 476.998 790.624 478.658 790.265 481.927 C 789.87 485.511 790.656 488.368 790.999 488.998 C 791.389 489.714 793.366 492.023 795.999 493.998 C 799.999 496.998 805.999 497.998 807.999 497.998 C 809.999 497.998 815.999 496.998 819.999 493.998 C 822.632 492.023 824.609 489.714 824.999 488.998 C 825.342 488.368 826.128 485.511 825.733 481.927 Z " fill="rgb(255,204,77)"/><path d=" M 807.999 481.498 C 810.999 481.498 810.999 481.998 810.999 482.998 C 810.999 483.998 809.499 485.998 807.999 485.998 C 806.499 485.998 804.999 483.998 804.999 482.998 C 804.999 481.998 804.998 481.498 807.999 481.498 Z " fill="rgb(231,90,112)"/><path d=" M 791.999 464.998 C 792.446 463.656 797.639 465.998 798.639 466.998 C 798.639 466.998 793.999 469.998 792.999 472.998 C 792.999 472.998 790.999 467.998 791.999 464.998 Z  M 823.999 464.998 C 823.552 463.656 818.359 465.998 817.359 466.998 C 817.359 466.998 821.999 469.998 822.999 472.998 C 822.999 472.998 824.999 467.998 823.999 464.998 Z " fill="rgb(241,143,38)"/><path d=" M 794.933 467.601 C 794.933 466.187 800.999 468.998 799.999 469.998 C 798.999 470.998 797.999 471.601 796.999 472.601 C 795.999 473.601 794.933 468.601 794.933 467.601 Z  M 821.065 467.601 C 821.065 466.187 814.999 468.998 815.999 469.998 C 816.999 470.998 817.999 471.601 818.999 472.601 C 819.999 473.601 821.065 468.601 821.065 467.601 Z " fill="rgb(255,204,77)"/><path d=" M 790.7 486.998 C 790.552 486.998 790.406 486.933 790.307 486.808 C 790.136 486.591 790.173 486.277 790.39 486.106 C 790.552 485.979 794.41 482.986 801.038 483.501 C 801.313 483.521 801.519 483.762 801.498 484.037 C 801.477 484.312 801.241 484.538 800.961 484.497 C 794.728 484.023 791.046 486.863 791.01 486.892 C 790.917 486.963 790.808 486.998 790.7 486.998 Z  M 799.568 482.335 C 799.519 482.335 799.468 482.328 799.419 482.313 C 794.629 480.816 790.682 481.966 790.642 481.977 C 790.377 482.058 790.099 481.907 790.019 481.642 C 789.94 481.377 790.09 481.099 790.354 481.02 C 790.527 480.968 794.64 479.773 799.716 481.358 C 799.98 481.441 800.127 481.721 800.044 481.985 C 799.978 482.198 799.781 482.335 799.568 482.335 Z  M 825.298 486.998 C 825.446 486.998 825.592 486.933 825.691 486.808 C 825.862 486.591 825.825 486.277 825.608 486.106 C 825.446 485.979 821.588 482.986 814.96 483.501 C 814.685 483.521 814.479 483.762 814.5 484.037 C 814.521 484.312 814.757 484.538 815.037 484.497 C 821.27 484.023 824.952 486.863 824.988 486.892 C 825.081 486.963 825.19 486.998 825.298 486.998 Z  M 816.43 482.335 C 816.479 482.335 816.53 482.328 816.579 482.313 C 821.369 480.816 825.316 481.966 825.356 481.977 C 825.621 482.058 825.899 481.907 825.979 481.642 C 826.058 481.377 825.908 481.099 825.644 481.02 C 825.471 480.968 821.358 479.773 816.282 481.358 C 816.018 481.441 815.871 481.721 815.954 481.985 C 816.019 482.198 816.217 482.335 816.43 482.335 Z " fill="rgb(254,231,184)"/></g><g><path d=" M 812.5 487 L 808 487 C 802.4 487 801 486 801 486 C 801 486 802.267 489.594 807.179 489.963 C 807.283 489.986 807.39 490 807.5 490 L 812 490 C 812.825 490 814 488.825 814 488 C 814 487.175 813.325 487 812.5 487 Z  M 805.813 479.888 C 805.637 480.031 805.386 480.035 805.203 479.902 C 805.19 479.892 803.942 479 801.5 479 C 799.059 479 797.81 479.893 797.8 479.9 C 797.617 480.037 797.365 480.033 797.189 479.891 C 797.011 479.749 796.951 479.505 797.043 479.297 C 797.103 479.162 798.543 476 801.5 476 C 804.458 476 805.897 479.162 805.957 479.297 C 806.049 479.504 805.989 479.746 805.813 479.888 Z  M 818.812 479.888 C 818.636 480.031 818.386 480.036 818.202 479.902 C 818.19 479.892 816.941 479 814.5 479 C 812.06 479 810.81 479.893 810.8 479.9 C 810.617 480.037 810.366 480.033 810.189 479.891 C 810.011 479.749 809.951 479.505 810.043 479.297 C 810.102 479.162 811.543 476 814.5 476 C 817.458 476 818.898 479.162 818.957 479.297 C 819.049 479.504 818.989 479.746 818.812 479.888 Z  M 803.114 468.002 C 803.666 468.023 804.096 468.488 804.075 469.04 C 804.053 469.59 803.591 470.019 803.041 470 C 802.885 469.996 799.471 469.948 796.702 473.357 C 796.354 473.784 795.725 473.851 795.295 473.502 C 794.866 473.154 794.801 472.524 795.15 472.095 C 798.578 467.876 802.93 467.995 803.114 468.002 Z  M 812.517 469.674 C 812.698 469.641 816.99 468.911 820.978 472.607 C 821.384 472.982 821.408 473.615 821.031 474.02 C 820.656 474.427 820.024 474.449 819.618 474.074 C 816.39 471.082 813.01 471.618 812.868 471.642 C 812.326 471.735 811.808 471.372 811.713 470.83 C 811.618 470.289 811.976 469.773 812.517 469.674 Z " fill="rgb(102,69,0)"/><path d=" M 813 488 L 810 488 C 809.45 488 809 488.45 809 489 L 809 493 C 809 493.55 809.45 494 810 494 C 810.55 494 811 493.55 811 493 L 811 496.5 C 811 497.325 811.675 498 812.5 498 C 813.325 498 814 497.325 814 496.5 L 814 489 C 814 488.45 813.55 488 813 488 Z " fill="rgb(136,201,249)"/></g></svg>