<?xml version="1.0" encoding="UTF-8" standalone="no"?>
<!-- Generator: Gravit.io -->

<svg
   style="isolation:isolate"
   viewBox="714.814 586.051 36.002 35.998"
   width="36.002pt"
   height="35.998pt"
   version="1.1"
   id="svg28"
   sodipodi:docname="cat_relieved.svg"
   inkscape:version="1.2.1 (9c6d41e410, 2022-07-14)"
   inkscape:export-filename="..\..\cat_relieved.png"
   inkscape:export-xdpi="511.97156"
   inkscape:export-ydpi="511.97156"
   xmlns:inkscape="http://www.inkscape.org/namespaces/inkscape"
   xmlns:sodipodi="http://sodipodi.sourceforge.net/DTD/sodipodi-0.dtd"
   xmlns="http://www.w3.org/2000/svg"
   xmlns:svg="http://www.w3.org/2000/svg">
  <defs
     id="defs32" />
  <sodipodi:namedview
     id="namedview30"
     pagecolor="#ffffff"
     bordercolor="#666666"
     borderopacity="1.0"
     inkscape:showpageshadow="2"
     inkscape:pageopacity="0.0"
     inkscape:pagecheckerboard="0"
     inkscape:deskcolor="#d1d1d1"
     inkscape:document-units="pt"
     showgrid="false"
     inkscape:zoom="17.271792"
     inkscape:cx="18.643115"
     inkscape:cy="23.969719"
     inkscape:window-width="1920"
     inkscape:window-height="1057"
     inkscape:window-x="1912"
     inkscape:window-y="-8"
     inkscape:window-maximized="1"
     inkscape:current-layer="svg28" />
  <g
     id="g14">
    <path
       d=" M 750.549 605.978 C 750.19 602.709 749.815 601.049 748.815 599.049 C 748.815 599.049 751.815 590.049 749.815 586.349 C 749.141 585.103 742.411 588.037 739.815 590.049 C 739.815 590.049 735.815 589.051 732.815 589.051 C 729.815 589.051 725.815 590.049 725.815 590.049 C 723.219 588.037 716.489 585.103 715.815 586.349 C 713.815 590.049 716.815 599.049 716.815 599.049 C 715.815 601.049 715.44 602.709 715.081 605.978 C 714.686 609.562 715.472 612.419 715.815 613.049 C 716.205 613.765 718.182 616.074 720.815 618.049 C 724.815 621.049 730.815 622.049 732.815 622.049 C 734.815 622.049 740.815 621.049 744.815 618.049 C 747.448 616.074 749.425 613.765 749.815 613.049 C 750.158 612.419 750.944 609.562 750.549 605.978 Z "
       fill="rgb(255,204,77)"
       id="path2" />
    <path
       d=" M 732.815 605.549 C 735.815 605.549 735.815 606.049 735.815 607.049 C 735.815 608.049 734.315 610.049 732.815 610.049 C 731.315 610.049 729.815 608.049 729.815 607.049 C 729.815 606.049 729.814 605.549 732.815 605.549 Z "
       fill="rgb(231,90,112)"
       id="path4" />
    <path
       d=" M 716.815 589.049 C 717.262 587.707 722.455 590.049 723.455 591.049 C 723.455 591.049 718.815 594.049 717.815 597.049 C 717.815 597.049 715.815 592.049 716.815 589.049 Z  M 748.815 589.049 C 748.368 587.707 743.175 590.049 742.175 591.049 C 742.175 591.049 746.815 594.049 747.815 597.049 C 747.815 597.049 749.815 592.049 748.815 589.049 Z "
       fill="rgb(241,143,38)"
       id="path6" />
    <path
       d=" M 719.749 591.652 C 719.749 590.238 725.815 593.049 724.815 594.049 C 723.815 595.049 722.815 595.652 721.815 596.652 C 720.815 597.652 719.749 592.652 719.749 591.652 Z  M 745.881 591.652 C 745.881 590.238 739.815 593.049 740.815 594.049 C 741.815 595.049 742.815 595.652 743.815 596.652 C 744.815 597.652 745.881 592.652 745.881 591.652 Z "
       fill="rgb(255,204,77)"
       id="path8" />
    <path
       d=" M 715.516 611.049 C 715.368 611.049 715.222 610.984 715.123 610.859 C 714.952 610.642 714.989 610.328 715.206 610.157 C 715.368 610.03 719.226 607.037 725.854 607.552 C 726.129 607.572 726.335 607.813 726.314 608.088 C 726.293 608.363 726.057 608.589 725.777 608.548 C 719.544 608.074 715.862 610.914 715.826 610.943 C 715.733 611.014 715.624 611.049 715.516 611.049 Z  M 724.384 606.386 C 724.335 606.386 724.284 606.379 724.235 606.364 C 719.445 604.867 715.498 606.017 715.458 606.028 C 715.193 606.109 714.915 605.958 714.835 605.693 C 714.756 605.428 714.906 605.15 715.17 605.071 C 715.343 605.019 719.456 603.824 724.532 605.409 C 724.796 605.492 724.943 605.772 724.86 606.036 C 724.794 606.249 724.597 606.386 724.384 606.386 Z  M 750.114 611.049 C 750.262 611.049 750.408 610.984 750.507 610.859 C 750.678 610.642 750.641 610.328 750.424 610.157 C 750.262 610.03 746.404 607.037 739.776 607.552 C 739.501 607.572 739.295 607.813 739.316 608.088 C 739.337 608.363 739.573 608.589 739.853 608.548 C 746.086 608.074 749.768 610.914 749.804 610.943 C 749.897 611.014 750.006 611.049 750.114 611.049 Z  M 741.246 606.386 C 741.295 606.386 741.346 606.379 741.395 606.364 C 746.185 604.867 750.132 606.017 750.172 606.028 C 750.437 606.109 750.715 605.958 750.795 605.693 C 750.874 605.428 750.724 605.15 750.46 605.071 C 750.287 605.019 746.174 603.824 741.098 605.409 C 740.834 605.492 740.687 605.772 740.77 606.036 C 740.835 606.249 741.033 606.386 741.246 606.386 Z "
       fill="rgb(254,231,184)"
       id="path10" />
    <g
       id="g12" />
  </g>
  <g
     id="g26"
     style="fill:#664500;fill-opacity:1">
    <path
       d=" M 743.126 600.612 C 742.951 600.47 742.7 600.465 742.516 600.598 C 742.504 600.607 741.255 601.5 738.814 601.5 C 736.374 601.5 735.124 600.607 735.114 600.6 C 734.931 600.463 734.679 600.467 734.503 600.609 C 734.325 600.751 734.265 600.995 734.357 601.203 C 734.417 601.338 735.857 604.5 738.814 604.5 C 741.772 604.5 743.211 601.338 743.271 601.203 C 743.363 600.996 743.303 600.754 743.126 600.612 Z "
       fill="rgb(41,47,51)"
       id="path16"
       style="fill:#664500;fill-opacity:1" />
    <path
       d=" M 730.516 600.598 C 730.504 600.607 729.256 601.5 726.814 601.5 C 724.373 601.5 723.124 600.607 723.114 600.6 C 722.931 600.463 722.68 600.467 722.503 600.609 C 722.325 600.751 722.265 600.995 722.357 601.203 C 722.417 601.338 723.857 604.5 726.814 604.5 C 729.772 604.5 731.211 601.338 731.271 601.203 C 731.363 600.996 731.303 600.754 731.126 600.612 C 730.95 600.469 730.698 600.465 730.516 600.598 Z "
       fill="rgb(41,47,51)"
       id="path18"
       style="fill:#664500;fill-opacity:1" />
    <path
       d=" M 743.815 598 C 743.51 598 743.211 597.862 743.014 597.6 C 740.422 594.144 736.053 594.972 736.01 594.98 C 735.463 595.088 734.942 594.737 734.833 594.196 C 734.725 593.655 735.076 593.128 735.617 593.019 C 735.848 592.972 741.274 591.947 744.613 596.399 C 744.945 596.841 744.855 597.468 744.413 597.799 C 744.234 597.935 744.024 598 743.815 598 Z "
       fill="rgb(41,47,51)"
       id="path20"
       style="fill:#664500;fill-opacity:1" />
    <path
       d=" M 721.813 598 C 721.605 598 721.394 597.935 721.214 597.8 C 720.772 597.469 720.683 596.842 721.014 596.4 C 724.353 591.946 729.78 592.974 730.01 593.02 C 730.552 593.128 730.903 593.655 730.794 594.197 C 730.686 594.737 730.16 595.088 729.62 594.982 C 729.434 594.947 725.184 594.174 722.614 597.6 C 722.418 597.862 722.117 598 721.813 598 Z "
       fill="rgb(41,47,51)"
       id="path22"
       style="fill:#664500;fill-opacity:1" />
    <path
       d=" M 738.068 611.577 C 737.88 611.466 737.636 611.491 737.471 611.637 C 737.461 611.645 736.458 612.5 732.814 612.5 C 729.173 612.5 728.168 611.646 728.168 611.646 C 728.009 611.486 727.764 611.456 727.568 611.564 C 727.373 611.675 727.275 611.903 727.33 612.121 C 727.34 612.165 728.474 616.5 732.814 616.5 C 737.154 616.5 738.288 612.165 738.299 612.121 C 738.352 611.908 738.255 611.69 738.068 611.577 Z "
       fill="rgb(41,47,51)"
       id="path24"
       style="fill:#664500;fill-opacity:1" />
  </g>
</svg>
