<?xml version="1.0" encoding="UTF-8" standalone="no"?>
<!-- Generator: Gravit.io -->
<svg xmlns="http://www.w3.org/2000/svg" xmlns:xlink="http://www.w3.org/1999/xlink" style="isolation:isolate" viewBox="606.499 582.952 36.002 35.998" width="36.002pt" height="35.998pt"><g><path d=" M 642.234 602.879 C 641.875 599.61 641.5 597.95 640.5 595.95 C 640.5 595.95 643.5 586.95 641.5 583.25 C 640.826 582.004 634.096 584.938 631.5 586.95 C 631.5 586.95 627.5 585.952 624.5 585.952 C 621.5 585.952 617.5 586.95 617.5 586.95 C 614.904 584.938 608.174 582.004 607.5 583.25 C 605.5 586.95 608.5 595.95 608.5 595.95 C 607.5 597.95 607.125 599.61 606.766 602.879 C 606.371 606.463 607.157 609.32 607.5 609.95 C 607.89 610.666 609.867 612.975 612.5 614.95 C 616.5 617.95 622.5 618.95 624.5 618.95 C 626.5 618.95 632.5 617.95 636.5 614.95 C 639.133 612.975 641.11 610.666 641.5 609.95 C 641.843 609.32 642.629 606.463 642.234 602.879 Z " fill="rgb(255,204,77)"/><path d=" M 624.5 602.45 C 627.5 602.45 627.5 602.95 627.5 603.95 C 627.5 604.95 626 606.95 624.5 606.95 C 623 606.95 621.5 604.95 621.5 603.95 C 621.5 602.95 621.499 602.45 624.5 602.45 Z " fill="rgb(231,90,112)"/><path d=" M 608.5 585.95 C 608.947 584.608 614.14 586.95 615.14 587.95 C 615.14 587.95 610.5 590.95 609.5 593.95 C 609.5 593.95 607.5 588.95 608.5 585.95 Z  M 640.5 585.95 C 640.053 584.608 634.86 586.95 633.86 587.95 C 633.86 587.95 638.5 590.95 639.5 593.95 C 639.5 593.95 641.5 588.95 640.5 585.95 Z " fill="rgb(241,143,38)"/><path d=" M 611.434 588.553 C 611.434 587.139 617.5 589.95 616.5 590.95 C 615.5 591.95 614.5 592.553 613.5 593.553 C 612.5 594.553 611.434 589.553 611.434 588.553 Z  M 637.566 588.553 C 637.566 587.139 631.5 589.95 632.5 590.95 C 633.5 591.95 634.5 592.553 635.5 593.553 C 636.5 594.553 637.566 589.553 637.566 588.553 Z " fill="rgb(255,204,77)"/><path d=" M 607.201 607.95 C 607.053 607.95 606.907 607.885 606.808 607.76 C 606.637 607.543 606.674 607.229 606.891 607.058 C 607.053 606.931 610.911 603.938 617.539 604.453 C 617.814 604.473 618.02 604.714 617.999 604.989 C 617.978 605.264 617.742 605.49 617.462 605.449 C 611.229 604.975 607.547 607.815 607.511 607.844 C 607.418 607.915 607.309 607.95 607.201 607.95 Z  M 616.069 603.287 C 616.02 603.287 615.969 603.28 615.92 603.265 C 611.13 601.768 607.183 602.918 607.143 602.929 C 606.878 603.01 606.6 602.859 606.52 602.594 C 606.441 602.329 606.591 602.051 606.855 601.972 C 607.028 601.92 611.141 600.725 616.217 602.31 C 616.481 602.393 616.628 602.673 616.545 602.937 C 616.479 603.15 616.282 603.287 616.069 603.287 Z  M 641.799 607.95 C 641.947 607.95 642.093 607.885 642.192 607.76 C 642.363 607.543 642.326 607.229 642.109 607.058 C 641.947 606.931 638.089 603.938 631.461 604.453 C 631.186 604.473 630.98 604.714 631.001 604.989 C 631.022 605.264 631.258 605.49 631.538 605.449 C 637.771 604.975 641.453 607.815 641.489 607.844 C 641.582 607.915 641.691 607.95 641.799 607.95 Z  M 632.931 603.287 C 632.98 603.287 633.031 603.28 633.08 603.265 C 637.87 601.768 641.817 602.918 641.857 602.929 C 642.122 603.01 642.4 602.859 642.48 602.594 C 642.559 602.329 642.409 602.051 642.145 601.972 C 641.972 601.92 637.859 600.725 632.783 602.31 C 632.519 602.393 632.372 602.673 632.455 602.937 C 632.52 603.15 632.718 603.287 632.931 603.287 Z " fill="rgb(254,231,184)"/></g><g><path d=" M 627.496 611 C 627.393 611 627.29 610.984 627.187 610.951 C 625.427 610.38 623.572 610.38 621.812 610.951 C 621.288 611.12 620.723 610.834 620.552 610.309 C 620.381 609.784 620.669 609.22 621.195 609.049 C 623.357 608.347 625.642 608.347 627.804 609.049 C 628.329 609.22 628.617 609.784 628.447 610.309 C 628.31 610.73 627.918 611 627.496 611 Z " fill="rgb(101,71,27)"/><path d=" M 636.835 593.068 C 635.932 595.813 633.35 597.783 630.341 597.783 C 630.197 597.783 630.052 597.778 629.906 597.769 C 628.429 597.676 627.064 597.114 625.956 596.185 C 625.992 596.68 626.032 597.182 626.092 597.725 C 626.244 599.113 626.976 600.207 628.208 600.888 C 629.028 601.342 630.008 601.576 631.021 601.64 C 632.755 601.749 634.591 601.36 635.894 600.731 C 637.271 600.066 638.166 598.869 638.35 597.446 C 638.533 596.031 637.996 594.522 636.835 593.068 Z " fill="rgb(255,255,255)"/><path d=" M 627.851 588.583 C 626.554 589.133 625.904 590.884 625.874 593.872 L 625.913 593.94 C 626.81 595.259 628.286 596.164 630.001 596.272 C 630.115 596.279 630.229 596.283 630.342 596.283 C 632.976 596.283 635.191 594.346 635.595 591.759 C 635.48 591.654 635.374 591.547 635.252 591.443 C 631.537 588.273 628.785 588.186 627.851 588.583 Z " fill="rgb(101,71,27)"/><path d=" M 630.341 597.783 C 633.35 597.783 635.932 595.813 636.835 593.068 C 636.481 592.625 636.064 592.188 635.594 591.759 C 635.19 594.346 632.975 596.283 630.341 596.283 C 630.228 596.283 630.114 596.279 630 596.272 C 628.285 596.164 626.809 595.259 625.912 593.94 L 625.873 593.872 C 625.866 594.573 625.894 595.345 625.956 596.185 C 627.064 597.114 628.429 597.676 629.906 597.769 C 630.052 597.779 630.197 597.783 630.341 597.783 Z " fill="rgb(244,144,12)"/><circle vector-effect="non-scaling-stroke" cx="627.9129995471483" cy="591.7049999999999" r="1.106999999999971" fill="rgb(255,255,255)"/><path d=" M 618.659 597.783 C 615.65 597.783 613.068 595.813 612.165 593.068 C 611.004 594.522 610.468 596.031 610.65 597.445 C 610.835 598.868 611.729 600.066 613.106 600.73 C 614.409 601.359 616.244 601.748 617.979 601.639 C 618.992 601.575 619.972 601.342 620.792 600.887 C 622.023 600.206 622.755 599.112 622.908 597.724 C 622.968 597.182 623.008 596.682 623.044 596.188 C 621.941 597.111 620.574 597.675 619.094 597.768 C 618.948 597.779 618.803 597.783 618.659 597.783 Z " fill="rgb(255,255,255)"/><path d=" M 618.659 596.283 C 618.772 596.283 618.886 596.279 619 596.272 C 620.715 596.164 622.191 595.259 623.088 593.94 L 623.127 593.872 C 623.096 590.884 622.447 589.133 621.15 588.583 C 620.216 588.186 617.463 588.273 613.749 591.442 C 613.627 591.546 613.522 591.653 613.406 591.758 C 613.81 594.346 616.025 596.283 618.659 596.283 Z " fill="rgb(101,71,27)"/><path d=" M 623.126 593.872 L 623.087 593.94 C 622.19 595.259 620.714 596.164 618.999 596.272 C 618.885 596.279 618.771 596.283 618.658 596.283 C 616.024 596.283 613.809 594.346 613.405 591.759 C 612.935 592.188 612.518 592.625 612.164 593.068 C 613.067 595.813 615.649 597.783 618.658 597.783 C 618.802 597.783 618.947 597.778 619.093 597.769 C 620.573 597.676 621.94 597.112 623.043 596.189 C 623.105 595.348 623.134 594.575 623.126 593.872 Z " fill="rgb(244,144,12)"/><path d=" M 616.281 592.81 C 616.891 592.772 617.355 592.246 617.316 591.636 C 617.278 591.026 616.752 590.562 616.142 590.6 C 615.532 590.638 615.068 591.164 615.106 591.774 C 615.145 592.384 615.671 592.848 616.281 592.81 Z " fill="rgb(255,255,255)"/></g></svg>