<?xml version="1.0" encoding="UTF-8" standalone="no"?>
<!DOCTYPE svg PUBLIC "-//W3C//DTD SVG 1.1//EN" "http://www.w3.org/Graphics/SVG/1.1/DTD/svg11.dtd">
<svg width="100%" height="100%" viewBox="0 0 37 36" version="1.1" xmlns="http://www.w3.org/2000/svg" xmlns:xlink="http://www.w3.org/1999/xlink" xml:space="preserve" xmlns:serif="http://www.serif.com/" style="fill-rule:evenodd;clip-rule:evenodd;stroke-linejoin:round;stroke-miterlimit:2;">
    <g id="g14">
        <path id="path2" d="M35.735,19.927C35.376,16.658 35.001,14.998 34.001,12.998C34.001,12.998 37.001,3.998 35.001,0.298C34.327,-0.948 27.597,1.986 25.001,3.998C25.001,3.998 21.001,3 18.001,3C15.001,3 11.001,3.998 11.001,3.998C8.405,1.986 1.675,-0.948 1.001,0.298C-0.999,3.998 2.001,12.998 2.001,12.998C1.001,14.998 0.626,16.658 0.267,19.927C-0.128,23.511 0.658,26.368 1.001,26.998C1.391,27.714 3.368,30.023 6.001,31.998C10.001,34.998 16.001,35.998 18.001,35.998C20.001,35.998 26.001,34.998 30.001,31.998C32.634,30.023 34.611,27.714 35.001,26.998C35.344,26.368 36.13,23.511 35.735,19.927Z" style="fill:rgb(255,204,77);fill-rule:nonzero;"/>
        <path id="path4" d="M18.001,19.498C21.001,19.498 21.001,19.998 21.001,20.998C21.001,21.998 19.501,23.998 18.001,23.998C16.501,23.998 15.001,21.998 15.001,20.998C15.001,19.998 15,19.498 18.001,19.498Z" style="fill:rgb(231,90,112);fill-rule:nonzero;"/>
        <path id="path6" d="M2.001,2.998C2.448,1.656 7.641,3.998 8.641,4.998C8.641,4.998 4.001,7.998 3.001,10.998C3.001,10.998 1.001,5.998 2.001,2.998ZM34.001,2.998C33.554,1.656 28.361,3.998 27.361,4.998C27.361,4.998 32.001,7.998 33.001,10.998C33.001,10.998 35.001,5.998 34.001,2.998Z" style="fill:rgb(241,143,38);fill-rule:nonzero;"/>
        <path id="path8" d="M4.935,5.601C4.935,4.187 11.001,6.998 10.001,7.998C9.001,8.998 8.001,9.601 7.001,10.601C6.001,11.601 4.935,6.601 4.935,5.601ZM31.067,5.601C31.067,4.187 25.001,6.998 26.001,7.998C27.001,8.998 28.001,9.601 29.001,10.601C30.001,11.601 31.067,6.601 31.067,5.601Z" style="fill:rgb(255,204,77);fill-rule:nonzero;"/>
        <path id="path10" d="M0.702,24.998C0.554,24.998 0.408,24.933 0.309,24.808C0.138,24.591 0.175,24.277 0.392,24.106C0.554,23.979 4.412,20.986 11.04,21.501C11.315,21.521 11.521,21.762 11.5,22.037C11.479,22.312 11.243,22.538 10.963,22.497C4.73,22.023 1.048,24.863 1.012,24.892C0.919,24.963 0.81,24.998 0.702,24.998ZM9.57,20.335C9.521,20.335 9.47,20.328 9.421,20.313C4.631,18.816 0.684,19.966 0.644,19.977C0.379,20.058 0.101,19.907 0.021,19.642C-0.058,19.377 0.092,19.099 0.356,19.02C0.529,18.968 4.642,17.773 9.718,19.358C9.982,19.441 10.129,19.721 10.046,19.985C9.98,20.198 9.783,20.335 9.57,20.335ZM35.3,24.998C35.448,24.998 35.594,24.933 35.693,24.808C35.864,24.591 35.827,24.277 35.61,24.106C35.448,23.979 31.59,20.986 24.962,21.501C24.687,21.521 24.481,21.762 24.502,22.037C24.523,22.312 24.759,22.538 25.039,22.497C31.272,22.023 34.954,24.863 34.99,24.892C35.083,24.963 35.192,24.998 35.3,24.998ZM26.432,20.335C26.481,20.335 26.532,20.328 26.581,20.313C31.371,18.816 35.318,19.966 35.358,19.977C35.623,20.058 35.901,19.907 35.981,19.642C36.06,19.377 35.91,19.099 35.646,19.02C35.473,18.968 31.36,17.773 26.284,19.358C26.02,19.441 25.873,19.721 25.956,19.985C26.021,20.198 26.219,20.335 26.432,20.335Z" style="fill:rgb(254,231,184);fill-rule:nonzero;"/>
    </g>
    <path d="M17.312,14.561C17.136,14.418 16.885,14.414 16.702,14.547C16.69,14.556 15.442,15.449 13,15.449C10.559,15.449 9.31,14.556 9.3,14.549C9.117,14.412 8.865,14.416 8.689,14.558C8.511,14.7 8.451,14.944 8.543,15.152C8.603,15.287 10.043,18.449 13,18.449C15.958,18.449 17.397,15.287 17.457,15.152C17.549,14.945 17.489,14.703 17.312,14.561ZM27.312,14.561C27.136,14.418 26.886,14.413 26.702,14.547C26.69,14.556 25.441,15.449 23,15.449C20.56,15.449 19.31,14.556 19.3,14.549C19.117,14.412 18.866,14.416 18.689,14.558C18.511,14.7 18.451,14.944 18.543,15.152C18.603,15.287 20.043,18.449 23,18.449C25.958,18.449 27.397,15.287 27.457,15.152C27.549,14.945 27.489,14.703 27.312,14.561ZM22,28L14,28C13.448,28 13,27.553 13,27C13,26.447 13.448,26 14,26L22,26C22.553,26 23,26.447 23,27C23,27.553 22.553,28 22,28ZM6,10.949C5.448,10.949 5,10.501 5,9.949C5,9.398 5.445,8.951 5.996,8.949C6.152,8.947 9.565,8.863 12.201,5.349C12.532,4.909 13.158,4.817 13.601,5.149C14.043,5.48 14.132,6.107 13.801,6.549C10.538,10.899 6.184,10.949 6,10.949ZM30,10.949C29.816,10.949 25.463,10.899 22.2,6.549C21.868,6.107 21.958,5.48 22.4,5.149C22.841,4.816 23.467,4.907 23.799,5.349C26.44,8.87 29.86,8.948 30.005,8.949C30.555,8.955 30.999,9.405 30.996,9.954C30.994,10.505 30.55,10.949 30,10.949Z" style="fill:rgb(102,69,0);fill-rule:nonzero;"/>
</svg>
