<?xml version="1.0" encoding="UTF-8" standalone="no"?>
<!-- Generator: Gravit.io -->
<svg xmlns="http://www.w3.org/2000/svg" xmlns:xlink="http://www.w3.org/1999/xlink" style="isolation:isolate" viewBox="0 0 36.002 35.998" width="36.002pt" height="35.998pt"><defs><clipPath id="_clipPath_E7pME8WsKIxoKFA9UCyFrebrXCmdBZbY"><rect width="36.002" height="35.998"/></clipPath></defs><g clip-path="url(#_clipPath_E7pME8WsKIxoKFA9UCyFrebrXCmdBZbY)"><g><path d=" M 35.735 19.927 C 35.376 16.658 35.001 14.998 34.001 12.998 C 34.001 12.998 37.001 3.998 35.001 0.298 C 34.327 -0.948 27.597 1.986 25.001 3.998 C 25.001 3.998 21.001 3 18.001 3 C 15.001 3 11.001 3.998 11.001 3.998 C 8.405 1.986 1.675 -0.948 1.001 0.298 C -0.999 3.998 2.001 12.998 2.001 12.998 C 1.001 14.998 0.626 16.658 0.267 19.927 C -0.128 23.511 0.658 26.368 1.001 26.998 C 1.391 27.714 3.368 30.023 6.001 31.998 C 10.001 34.998 16.001 35.998 18.001 35.998 C 20.001 35.998 26.001 34.998 30.001 31.998 C 32.634 30.023 34.611 27.714 35.001 26.998 C 35.344 26.368 36.13 23.511 35.735 19.927 Z " fill="rgb(255,204,77)"/><path d=" M 18.001 19.498 C 21.001 19.498 21.001 19.998 21.001 20.998 C 21.001 21.998 19.501 23.998 18.001 23.998 C 16.501 23.998 15.001 21.998 15.001 20.998 C 15.001 19.998 15 19.498 18.001 19.498 Z " fill="rgb(231,90,112)"/><path d=" M 2.001 2.998 C 2.448 1.656 7.641 3.998 8.641 4.998 C 8.641 4.998 4.001 7.998 3.001 10.998 C 3.001 10.998 1.001 5.998 2.001 2.998 Z  M 34.001 2.998 C 33.554 1.656 28.361 3.998 27.361 4.998 C 27.361 4.998 32.001 7.998 33.001 10.998 C 33.001 10.998 35.001 5.998 34.001 2.998 Z " fill="rgb(241,143,38)"/><path d=" M 4.935 5.601 C 4.935 4.187 11.001 6.998 10.001 7.998 C 9.001 8.998 8.001 9.601 7.001 10.601 C 6.001 11.601 4.935 6.601 4.935 5.601 Z  M 31.067 5.601 C 31.067 4.187 25.001 6.998 26.001 7.998 C 27.001 8.998 28.001 9.601 29.001 10.601 C 30.001 11.601 31.067 6.601 31.067 5.601 Z " fill="rgb(255,204,77)"/><path d=" M 0.702 24.998 C 0.554 24.998 0.408 24.933 0.309 24.808 C 0.138 24.591 0.175 24.277 0.392 24.106 C 0.554 23.979 4.412 20.986 11.04 21.501 C 11.315 21.521 11.521 21.762 11.5 22.037 C 11.479 22.312 11.243 22.538 10.963 22.497 C 4.73 22.023 1.048 24.863 1.012 24.892 C 0.919 24.963 0.81 24.998 0.702 24.998 Z  M 9.57 20.335 C 9.521 20.335 9.47 20.328 9.421 20.313 C 4.631 18.816 0.684 19.966 0.644 19.977 C 0.379 20.058 0.101 19.907 0.021 19.642 C -0.058 19.377 0.092 19.099 0.356 19.02 C 0.529 18.968 4.642 17.773 9.718 19.358 C 9.982 19.441 10.129 19.721 10.046 19.985 C 9.98 20.198 9.783 20.335 9.57 20.335 Z  M 35.3 24.998 C 35.448 24.998 35.594 24.933 35.693 24.808 C 35.864 24.591 35.827 24.277 35.61 24.106 C 35.448 23.979 31.59 20.986 24.962 21.501 C 24.687 21.521 24.481 21.762 24.502 22.037 C 24.523 22.312 24.759 22.538 25.039 22.497 C 31.272 22.023 34.954 24.863 34.99 24.892 C 35.083 24.963 35.192 24.998 35.3 24.998 Z  M 26.432 20.335 C 26.481 20.335 26.532 20.328 26.581 20.313 C 31.371 18.816 35.318 19.966 35.358 19.977 C 35.623 20.058 35.901 19.907 35.981 19.642 C 36.06 19.377 35.91 19.099 35.646 19.02 C 35.473 18.968 31.36 17.773 26.284 19.358 C 26.02 19.441 25.873 19.721 25.956 19.985 C 26.021 20.198 26.219 20.335 26.432 20.335 Z " fill="rgb(254,231,184)"/><path d=" M 25.001 20.998 C 30.001 22.998 34.001 25.998 34.001 30.998 C 34.001 34.998 31.001 34.998 31.001 34.998 C 25.001 34.998 29.001 26.998 25.001 20.998 Z  M 11.001 20.998 C 6.001 22.998 2.001 25.998 2.001 30.998 C 2.001 34.998 5.001 34.998 5.001 34.998 C 11.001 34.998 7.001 26.998 11.001 20.998 Z " fill="rgb(93,173,236)"/></g><g><path d=" M 25.485 28.879 C 25.44 28.7 24.317 24.5 18 24.5 C 11.682 24.5 10.56 28.7 10.515 28.879 C 10.46 29.096 10.558 29.321 10.752 29.433 C 10.947 29.542 11.191 29.512 11.352 29.356 C 11.371 29.337 13.306 27.5 18 27.5 C 22.694 27.5 24.63 29.337 24.648 29.355 C 24.744 29.45 24.872 29.5 25 29.5 C 25.084 29.5 25.169 29.479 25.246 29.436 C 25.442 29.324 25.54 29.097 25.485 28.879 Z  M 15.707 15.293 C 12.452 12.038 7.221 12 7 12 C 6.448 12 6.001 12.447 6.001 12.998 C 6 13.55 6.447 13.998 6.999 14 C 7.028 14 8.924 14.022 10.982 14.737 C 10.389 15.377 10 16.371 10 17.5 C 10 19.434 11.119 21 12.5 21 C 13.881 21 15 19.434 15 17.5 C 15 17.326 14.981 17.16 14.963 16.993 C 14.976 16.993 14.988 17 15 17 C 15.256 17 15.512 16.902 15.707 16.707 C 16.098 16.316 16.098 15.684 15.707 15.293 Z  M 29 12 C 28.779 12 23.549 12.038 20.293 15.293 C 19.902 15.684 19.902 16.316 20.293 16.707 C 20.488 16.902 20.744 17 21 17 C 21.013 17 21.024 16.993 21.036 16.993 C 21.02 17.16 21 17.326 21 17.5 C 21 19.434 22.119 21 23.5 21 C 24.881 21 26 19.434 26 17.5 C 26 16.371 25.611 15.377 25.018 14.737 C 27.076 14.022 28.972 14 29.002 14 C 29.553 13.998 30 13.55 29.999 12.998 C 29.998 12.447 29.552 12 29 12 Z " fill="rgb(102,69,0)"/></g></g></svg>