<?xml version="1.0" encoding="UTF-8" standalone="no"?>
<!-- Generator: Gravit.io -->
<svg xmlns="http://www.w3.org/2000/svg" xmlns:xlink="http://www.w3.org/1999/xlink" style="isolation:isolate" viewBox="723.5 673.219 36 36" width="36pt" height="36pt"><g><circle vector-effect="non-scaling-stroke" cx="741.5000000000002" cy="691.21875" r="18" fill="rgb(255,204,77)"/><g><circle vector-effect="non-scaling-stroke" cx="752.5000000000002" cy="696.21875" r="5" fill="rgb(255,120,146)"/><circle vector-effect="non-scaling-stroke" cx="730.5000000000002" cy="696.21875" r="5" fill="rgb(255,120,146)"/></g><path d=" M 729.501 684.219 C 728.949 684.219 728.501 683.771 728.501 683.219 C 728.501 682.668 728.946 682.221 729.497 682.219 C 729.653 682.217 733.066 682.133 735.702 678.619 C 736.033 678.179 736.659 678.087 737.102 678.419 C 737.544 678.75 737.633 679.377 737.302 679.819 C 734.039 684.169 729.685 684.219 729.501 684.219 Z  M 754.487 686.612 C 754.615 687.149 754.283 687.689 753.746 687.817 C 753.21 687.945 752.672 687.615 752.542 687.08 C 752.504 686.929 751.631 683.628 747.601 681.879 C 747.096 681.659 746.862 681.071 747.082 680.564 C 747.302 680.057 747.891 679.825 748.397 680.045 C 753.386 682.21 754.444 686.433 754.487 686.612 Z " fill="rgb(101,71,27)"/><path d=" M 746.686 702.745 C 745.693 702.745 744.734 702.29 743.898 701.406 C 741.082 698.421 740.329 699.073 739.081 700.155 C 738.3 700.834 737.327 701.678 735.876 701.678 C 733.525 701.678 731.907 699.376 731.84 699.278 C 731.526 698.824 731.64 698.201 732.094 697.887 C 732.545 697.575 733.168 697.687 733.484 698.138 C 733.785 698.567 734.801 699.678 735.877 699.678 C 736.581 699.678 737.133 699.199 737.772 698.645 C 739.588 697.067 741.536 695.99 745.355 700.033 C 746.178 700.906 746.807 700.807 747.263 700.625 C 748.922 699.96 750.468 696.927 750.46 695.475 C 750.457 694.923 750.902 694.473 751.454 694.47 L 751.46 694.47 C 752.01 694.47 752.457 694.914 752.46 695.465 C 752.472 697.568 750.606 701.441 748.006 702.482 C 747.563 702.657 747.121 702.744 746.686 702.745 Z " fill="rgb(102,69,0)"/><path d=" M 738.315 688.594 C 737.731 690.708 736.673 691.677 735.163 691.26 C 733.654 690.843 732.82 689.351 733.403 687.237 C 733.986 685.125 735.578 683.874 737.087 684.291 C 738.598 684.708 738.899 686.481 738.315 688.594 Z  M 749.731 687.839 C 750.204 689.98 749.056 692.677 747.527 693.015 C 745.998 693.353 744.247 691.296 743.774 689.155 C 743.301 687.015 744.193 685.184 745.722 684.846 C 747.251 684.508 749.258 685.699 749.731 687.839 Z " fill="rgb(101,71,27)"/></g></svg>