<?xml version="1.0" encoding="UTF-8" standalone="no"?>
<!-- Generator: Gravit.io -->
<svg xmlns="http://www.w3.org/2000/svg" xmlns:xlink="http://www.w3.org/1999/xlink" style="isolation:isolate" viewBox="751 497.5 36 36" width="36pt" height="36pt"><g style="isolation:isolate"><g><path d=" M 787 515.5 C 787 525.441 778.941 533.5 769 533.5 C 759.06 533.5 751 525.441 751 515.5 C 751 505.56 759.06 497.5 769 497.5 C 778.941 497.5 787 505.56 787 515.5 Z " fill="rgb(255,204,77)"/><path d=" M 776.485 527.379 C 776.44 527.2 775.317 523 769 523 C 762.682 523 761.56 527.2 761.515 527.379 C 761.46 527.596 761.558 527.821 761.752 527.933 C 761.947 528.042 762.191 528.012 762.352 527.856 C 762.371 527.837 764.306 526 769 526 C 773.694 526 775.63 527.837 775.648 527.855 C 775.744 527.95 775.872 528 776 528 C 776.084 528 776.169 527.979 776.246 527.936 C 776.442 527.824 776.54 527.597 776.485 527.379 Z " fill="rgb(102,69,0)"/><path d=" M 775 520.5 C 775 517.74 777.24 515.5 780 515.5 C 782.76 515.5 785 517.74 785 520.5 C 785 523.26 782.76 525.5 780 525.5 C 777.24 525.5 775 523.26 775 520.5 Z  M 753 520.5 C 753 517.74 755.24 515.5 758 515.5 C 760.76 515.5 763 517.74 763 520.5 C 763 523.26 760.76 525.5 758 525.5 C 755.24 525.5 753 523.26 753 520.5 Z " fill-rule="evenodd" fill="rgb(255,120,146)"/><path d=" M 766.707 514.793 C 763.452 511.538 758.221 511.5 758 511.5 C 757.448 511.5 757.001 511.947 757.001 512.498 C 757 513.05 757.447 513.498 757.999 513.5 C 758.028 513.5 759.924 513.522 761.982 514.237 C 761.389 514.877 761 515.871 761 517 C 761 518.934 762.119 520.5 763.5 520.5 C 764.881 520.5 766 518.934 766 517 C 766 516.826 765.981 516.66 765.963 516.493 C 765.976 516.493 765.988 516.5 766 516.5 C 766.256 516.5 766.512 516.402 766.707 516.207 C 767.098 515.816 767.098 515.184 766.707 514.793 Z " fill="rgb(102,69,0)"/><path d=" M 780 511.5 C 779.779 511.5 774.549 511.538 771.293 514.793 C 770.902 515.184 770.902 515.816 771.293 516.207 C 771.488 516.402 771.744 516.5 772 516.5 C 772.013 516.5 772.024 516.493 772.036 516.493 C 772.02 516.66 772 516.826 772 517 C 772 518.934 773.119 520.5 774.5 520.5 C 775.881 520.5 777 518.934 777 517 C 777 515.871 776.611 514.877 776.018 514.237 C 778.076 513.522 779.972 513.5 780.002 513.5 C 780.553 513.498 781 513.05 780.999 512.498 C 780.998 511.947 780.552 511.5 780 511.5 Z " fill="rgb(102,69,0)"/></g></g></svg>