<?xml version="1.0" encoding="UTF-8" standalone="no"?>
<!DOCTYPE svg PUBLIC "-//W3C//DTD SVG 1.1//EN" "http://www.w3.org/Graphics/SVG/1.1/DTD/svg11.dtd">
<svg width="100%" height="100%" viewBox="0 0 36 36" version="1.1" xmlns="http://www.w3.org/2000/svg" xmlns:xlink="http://www.w3.org/1999/xlink" xml:space="preserve" xmlns:serif="http://www.serif.com/" style="fill-rule:evenodd;clip-rule:evenodd;stroke-linejoin:round;stroke-miterlimit:2;">
    <path d="M36,18C36,27.941 27.941,36 18,36C8.059,36 0,27.941 0,18C0,8.059 8.059,0 18,0C27.941,0 36,8.059 36,18" style="fill:rgb(255,204,77);fill-rule:nonzero;"/>
    <circle cx="7" cy="21" r="5" style="fill:rgb(255,120,146);"/>
    <circle cx="29" cy="21" r="5" style="fill:rgb(255,120,146);"/>
    <path d="M21.871,27C23.206,26.588 24.5,25.844 24.5,24.5C24.5,21.881 19.588,21.532 19.027,21.501C18.75,21.465 18.517,21.695 18.501,21.969C18.484,22.243 18.691,22.48 18.965,22.499C19,22.501 22.5,22.798 22.5,24.5C22.5,26.202 19,26.499 18.965,26.501C18.955,26.502 18.948,26.507 18.939,26.508C18.815,26.516 18.709,26.573 18.629,26.667L18.614,26.688C18.585,26.727 18.559,26.766 18.541,26.813C18.53,26.84 18.525,26.87 18.52,26.899C18.515,26.923 18.503,26.945 18.501,26.969C18.5,26.979 18.505,26.989 18.505,27C18.505,27.011 18.5,27.021 18.501,27.031C18.503,27.056 18.514,27.077 18.52,27.101C18.526,27.13 18.531,27.16 18.542,27.188C18.555,27.22 18.574,27.248 18.593,27.276C18.61,27.299 18.623,27.323 18.643,27.343C18.666,27.367 18.695,27.386 18.724,27.405C18.748,27.422 18.769,27.438 18.795,27.451C18.826,27.466 18.86,27.472 18.896,27.478C18.919,27.484 18.94,27.496 18.965,27.498C19,27.501 22.5,27.798 22.5,29.5C22.5,31.202 19,31.499 18.965,31.501C18.692,31.521 18.484,31.758 18.501,32.031C18.518,32.296 18.737,32.5 19,32.5L19.027,32.499C19.588,32.468 24.5,32.119 24.5,29.5C24.5,28.156 23.206,27.412 21.871,27Z" style="fill:rgb(102,69,0);fill-rule:nonzero;"/>
    <g transform="matrix(1,0,0,1,0,-2)">
        <path d="M15.707,17.293C12.452,14.038 7.221,14 7,14C6.448,14 6.001,14.447 6.001,14.998C6,15.55 6.447,15.998 6.999,16C7.028,16 8.924,16.022 10.982,16.737C10.389,17.377 10,18.371 10,19.5C10,21.434 11.119,23 12.5,23C13.881,23 15,21.434 15,19.5C15,19.326 14.981,19.16 14.963,18.993C14.976,18.993 14.988,19 15,19C15.256,19 15.512,18.902 15.707,18.707C16.098,18.316 16.098,17.684 15.707,17.293ZM29,14C28.779,14 23.549,14.038 20.293,17.293C19.902,17.684 19.902,18.316 20.293,18.707C20.488,18.902 20.744,19 21,19C21.013,19 21.024,18.993 21.036,18.993C21.02,19.16 21,19.326 21,19.5C21,21.434 22.119,23 23.5,23C24.881,23 26,21.434 26,19.5C26,18.371 25.611,17.377 25.018,16.737C27.076,16.022 28.972,16 29.002,16C29.553,15.998 30,15.55 29.999,14.998C29.998,14.447 29.552,14 29,14Z" style="fill:rgb(102,69,0);fill-rule:nonzero;"/>
    </g>
</svg>
