<?xml version="1.0" encoding="UTF-8" standalone="no"?>
<!-- Generator: Gravit.io -->
<svg xmlns="http://www.w3.org/2000/svg" xmlns:xlink="http://www.w3.org/1999/xlink" style="isolation:isolate" viewBox="733 503 36 36" width="36pt" height="36pt"><g style="isolation:isolate"><g><path d=" M 769 521 C 769 530.941 760.941 539 751 539 C 741.06 539 733 530.941 733 521 C 733 511.06 741.06 503 751 503 C 760.941 503 769 511.06 769 521 Z " fill="rgb(255,204,77)"/><path d=" M 758.485 532.879 C 758.44 532.7 757.317 528.5 751 528.5 C 744.682 528.5 743.56 532.7 743.515 532.879 C 743.46 533.096 743.558 533.321 743.752 533.433 C 743.947 533.542 744.191 533.512 744.352 533.356 C 744.371 533.337 746.306 531.5 751 531.5 C 755.694 531.5 757.63 533.337 757.648 533.355 C 757.744 533.45 757.872 533.5 758 533.5 C 758.084 533.5 758.169 533.479 758.246 533.436 C 758.442 533.324 758.54 533.097 758.485 532.879 Z " fill="rgb(102,69,0)"/><path d=" M 757 526 C 757 523.24 759.24 521 762 521 C 764.76 521 767 523.24 767 526 C 767 528.76 764.76 531 762 531 C 759.24 531 757 528.76 757 526 Z  M 735 526 C 735 523.24 737.24 521 740 521 C 742.76 521 745 523.24 745 526 C 745 528.76 742.76 531 740 531 C 737.24 531 735 528.76 735 526 Z " fill-rule="evenodd" fill="rgb(255,120,146)"/><path d=" M 754.5 524 L 758.5 524 L 758.5 538 L 754.5 537.966 L 754.5 524 Z  M 743.5 538 L 747.5 537.966 L 747.5 524 L 743.5 524 L 743.5 538 Z " fill-rule="evenodd" fill="rgb(93,173,236)"/><path d=" M 748.707 520.293 C 745.452 517.038 740.221 517 740 517 C 739.448 517 739.001 517.447 739.001 517.998 C 739 518.55 739.447 518.998 739.999 519 C 740.028 519 741.924 519.022 743.982 519.737 C 743.389 520.377 743 521.371 743 522.5 C 743 524.434 744.119 526 745.5 526 C 746.881 526 748 524.434 748 522.5 C 748 522.326 747.981 522.16 747.963 521.993 C 747.976 521.993 747.988 522 748 522 C 748.256 522 748.512 521.902 748.707 521.707 C 749.098 521.316 749.098 520.684 748.707 520.293 Z " fill="rgb(102,69,0)"/><path d=" M 762 517 C 761.779 517 756.549 517.038 753.293 520.293 C 752.902 520.684 752.902 521.316 753.293 521.707 C 753.488 521.902 753.744 522 754 522 C 754.013 522 754.024 521.993 754.036 521.993 C 754.02 522.16 754 522.326 754 522.5 C 754 524.434 755.119 526 756.5 526 C 757.881 526 759 524.434 759 522.5 C 759 521.371 758.611 520.377 758.018 519.737 C 760.076 519.022 761.972 519 762.002 519 C 762.553 518.998 763 518.55 762.999 517.998 C 762.998 517.447 762.552 517 762 517 Z " fill="rgb(102,69,0)"/><ellipse vector-effect="non-scaling-stroke" cx="751.000000237621" cy="537" rx="18" ry="2" fill="rgb(93,173,236)"/></g></g></svg>