<?xml version="1.0" encoding="UTF-8" standalone="no"?>
<!-- Generator: Gravit.io -->
<svg xmlns="http://www.w3.org/2000/svg" xmlns:xlink="http://www.w3.org/1999/xlink" style="isolation:isolate" viewBox="0 0 512 512" width="512pt" height="512pt"><defs><clipPath id="_clipPath_jNiUM08mpG8LrTvDfgye0Prf60vH7Yl1"><rect width="512" height="512"/></clipPath></defs><mask id="_mask_WuH0iaDwA6KQYZQyVCtVwSHjs4L0g6Z7" x="-200%" y="-200%" width="400%" height="400%"><rect x="-200%" y="-200%" width="400%" height="400%" style="fill:white;"/><circle vector-effect="non-scaling-stroke" cx="256.0150006101816" cy="430" r="40.899993896484375" fill="black" stroke="none"/></mask><mask id="_mask_M05txAhm9ZJKuGrGSZpc7JXYdu01iySZ" x="-200%" y="-200%" width="400%" height="400%"><rect x="-200%" y="-200%" width="400%" height="400%" style="fill:white;"/><line x1="140.815" y1="430" x2="371.215" y2="430" vector-effect="non-scaling-stroke" stroke-width="4" stroke="none" stroke-linejoin="miter" stroke-linecap="butt" stroke-miterlimit="4" fill="black"/></mask><g clip-path="url(#_clipPath_jNiUM08mpG8LrTvDfgye0Prf60vH7Yl1)" mask="url(#_mask_M05txAhm9ZJKuGrGSZpc7JXYdu01iySZ)"><path d=" M 345.6 106.4 L 345.6 208.8 C 345.602 212.91 343.626 216.769 340.29 219.17 C 338.108 220.741 335.489 221.59 332.8 221.6 C 331.441 221.608 330.089 221.392 328.8 220.96 L 175.2 169.76 C 169.972 168.006 166.444 163.114 166.43 157.6 L 166.43 106.4 C 166.452 99.34 172.17 93.622 179.23 93.6 L 332.8 93.6 C 339.86 93.622 345.578 99.34 345.6 106.4 L 345.6 106.4 Z " fill="rgb(117,120,137)"/><path d="M 77.836 0 L 434.194 0 C 439.446 0 443.71 4.264 443.71 9.516 L 443.71 39.284 C 443.71 44.536 439.446 48.8 434.194 48.8 L 77.836 48.8 C 72.584 48.8 68.32 44.536 68.32 39.284 L 68.32 9.516 C 68.32 4.264 72.584 0 77.836 0 Z" style="stroke:none;fill:#FFB85A;stroke-miterlimit:10;"/><g style="opacity:0.3;"><g opacity="0.3"><path d=" M 166.4 140.45 L 166.4 157.6 C 166.414 163.114 169.942 168.006 175.17 169.76 L 328.77 221 C 330.059 221.432 331.411 221.648 332.77 221.64 C 335.459 221.63 338.078 220.781 340.26 219.21 C 343.596 216.809 345.572 212.95 345.57 208.84 L 345.57 200.26 L 166.4 140.45 Z " fill="rgb(255,255,255)"/></g></g><rect x="243.2" y="48.8" width="25.6" height="44.8" transform="matrix(1,0,0,1,0,0)" fill="rgb(82,85,89)"/><rect x="-108.185" y="263" width="463.2" height="34.8" transform="matrix(0,1,-1,0,403.815,156.985)" fill="rgb(253,183,89)"/><rect x="157.015" y="263" width="463.2" height="34.8" transform="matrix(0,1,-1,0,669.015,-108.215)" fill="rgb(253,183,89)"/><rect x="140.815" y="348" width="230.4" height="164" transform="matrix(1,0,0,1,0,0)" fill="rgb(211,147,79)"/><path d=" M 106.015 407 L 1 512 L 41 512 L 106.015 446 L 106.015 407 Z " fill="rgb(253,183,89)"/><path d=" M 406.015 407 L 511.03 512 L 471.03 512 L 406.015 446 L 406.015 407 Z " fill="rgb(253,183,89)"/></g></svg>