<?xml version="1.0" encoding="UTF-8" standalone="no"?>
<!-- Generator: Gravit.io -->
<svg xmlns="http://www.w3.org/2000/svg" xmlns:xlink="http://www.w3.org/1999/xlink" style="isolation:isolate" viewBox="733.313 601.219 36 36" width="36pt" height="36pt"><g><circle vector-effect="non-scaling-stroke" cx="751.3125" cy="619.21875" r="18" fill="rgb(234,89,110)"/><path d=" M 759.438 630.48 C 759.41 630.48 759.381 630.477 759.354 630.47 C 750.93 628.528 743.358 630.448 743.281 630.468 C 743.17 630.496 743.05 630.473 742.958 630.402 C 742.866 630.33 742.813 630.221 742.813 630.105 C 742.813 626.927 746.526 623.233 751.313 623.233 C 756.1 623.233 759.813 626.927 759.813 630.105 C 759.813 630.219 759.76 630.328 759.67 630.399 C 759.604 630.451 759.521 630.48 759.438 630.48 Z " fill="rgb(41,47,51)"/><path d=" M 751.941 624.298 L 751.941 625.125 L 750.851 625.126 L 750.851 624.289 C 748.573 624.416 746.66 625.451 745.396 626.805 L 745.403 627.266 C 745.49 630.198 747.483 633.068 751.396 633.068 C 755.295 633.068 757.288 630.217 757.386 627.295 L 757.396 627.011 C 756.167 625.596 754.25 624.474 751.941 624.298 Z " fill="rgb(244,171,186)"/><path d=" M 751.313 624.268 C 751.156 624.268 751.004 624.282 750.851 624.29 L 750.851 628.737 C 750.851 629.038 751.094 629.282 751.396 629.282 C 751.697 629.282 751.941 629.038 751.941 628.737 L 751.941 624.299 C 751.733 624.282 751.527 624.268 751.313 624.268 Z " fill="rgb(234,89,110)"/><path d=" M 769.218 613.281 C 769.218 616.095 766.938 618.375 764.125 618.375 C 761.31 618.375 759.031 616.095 759.031 613.281 C 759.031 610.467 763.105 603.093 764.125 603.093 C 765.143 603.093 769.218 610.468 769.218 613.281 Z  M 741.885 609.657 C 741.885 611.97 740.01 613.845 737.698 613.845 C 735.385 613.845 733.509 611.97 733.509 609.657 C 733.509 607.344 736.859 601.282 737.698 601.282 C 738.536 601.282 741.885 607.344 741.885 609.657 Z " fill="rgb(93,173,236)"/></g><g><path d=" M 763.647 613.287 C 762.744 616.032 760.163 618.002 757.153 618.002 C 757.01 618.002 756.865 617.997 756.719 617.988 C 755.242 617.895 753.876 617.333 752.768 616.404 C 752.805 616.899 752.844 617.401 752.904 617.944 C 753.056 619.332 753.788 620.426 755.021 621.107 C 755.84 621.561 756.82 621.795 757.833 621.859 C 759.567 621.968 761.403 621.579 762.706 620.95 C 764.083 620.285 764.979 619.088 765.163 617.665 C 765.346 616.25 764.809 614.741 763.647 613.287 Z " fill="rgb(255,255,255)"/><path d=" M 754.663 608.802 C 753.367 609.352 752.716 611.103 752.687 614.091 L 752.726 614.159 C 753.622 615.478 755.098 616.383 756.813 616.491 C 756.927 616.498 757.042 616.502 757.154 616.502 C 759.788 616.502 762.003 614.565 762.407 611.978 C 762.292 611.873 762.187 611.766 762.065 611.662 C 758.35 608.492 755.597 608.405 754.663 608.802 Z " fill="rgb(101,71,27)"/><path d=" M 757.153 618.002 C 760.163 618.002 762.744 616.032 763.647 613.287 C 763.294 612.844 762.876 612.407 762.406 611.978 C 762.003 614.565 759.788 616.502 757.153 616.502 C 757.041 616.502 756.927 616.498 756.813 616.491 C 755.097 616.383 753.622 615.478 752.725 614.159 L 752.685 614.091 C 752.678 614.792 752.706 615.564 752.768 616.404 C 753.876 617.333 755.242 617.895 756.719 617.988 C 756.865 617.998 757.01 618.002 757.153 618.002 Z " fill="rgb(244,144,12)"/><circle vector-effect="non-scaling-stroke" cx="754.7255" cy="611.9237499999999" r="1.106999999999971" fill="rgb(255,255,255)"/><path d=" M 745.472 618.002 C 742.462 618.002 739.88 616.032 738.977 613.287 C 737.817 614.741 737.28 616.25 737.463 617.664 C 737.648 619.087 738.542 620.285 739.918 620.949 C 741.221 621.578 743.057 621.967 744.792 621.858 C 745.804 621.794 746.785 621.561 747.604 621.106 C 748.835 620.425 749.567 619.331 749.721 617.943 C 749.781 617.401 749.82 616.901 749.857 616.407 C 748.753 617.33 747.387 617.894 745.906 617.987 C 745.76 617.998 745.616 618.002 745.472 618.002 Z " fill="rgb(255,255,255)"/><path d=" M 745.472 616.502 C 745.585 616.502 745.698 616.498 745.813 616.491 C 747.528 616.383 749.003 615.478 749.9 614.159 L 749.94 614.091 C 749.909 611.103 749.259 609.352 747.962 608.802 C 747.028 608.405 744.276 608.492 740.562 611.661 C 740.439 611.765 740.334 611.872 740.219 611.977 C 740.622 614.565 742.837 616.502 745.472 616.502 Z " fill="rgb(101,71,27)"/><path d=" M 749.938 614.091 L 749.899 614.159 C 749.002 615.478 747.526 616.383 745.811 616.491 C 745.698 616.498 745.583 616.502 745.47 616.502 C 742.837 616.502 740.622 614.565 740.218 611.978 C 739.747 612.407 739.331 612.844 738.977 613.287 C 739.879 616.032 742.462 618.002 745.47 618.002 C 745.615 618.002 745.759 617.997 745.906 617.988 C 747.385 617.895 748.752 617.331 749.855 616.408 C 749.917 615.567 749.947 614.794 749.938 614.091 Z " fill="rgb(244,144,12)"/><path d=" M 743.094 613.029 C 743.703 612.991 744.167 612.465 744.128 611.855 C 744.09 611.245 743.564 610.781 742.955 610.819 C 742.344 610.857 741.88 611.383 741.918 611.993 C 741.958 612.603 742.483 613.067 743.094 613.029 Z " fill="rgb(255,255,255)"/></g></svg>