<?xml version="1.0" encoding="UTF-8" standalone="no"?>
<!-- Generator: Gravit.io -->
<svg xmlns="http://www.w3.org/2000/svg" xmlns:xlink="http://www.w3.org/1999/xlink" style="isolation:isolate" viewBox="719 646.125 36 36" width="36pt" height="36pt"><g><path d=" M 755 664.125 C 755 674.066 746.941 682.125 737 682.125 C 727.06 682.125 719 674.066 719 664.125 C 719 654.185 727.06 646.125 737 646.125 C 746.941 646.125 755 654.185 755 664.125 Z " fill="rgb(255,204,77)"/><path d=" M 740.229 650.072 C 740.229 650.312 740.259 650.544 740.311 650.768 C 740.736 653.411 743.675 656.199 745.781 656.965 C 747.446 656.36 749.627 654.489 750.679 652.426 C 748.59 649.986 745.86 648.112 742.75 647.064 C 741.318 647.321 740.229 648.566 740.229 650.072 Z  M 732.743 675.203 C 732.8 674.961 732.833 674.709 732.833 674.449 C 732.833 672.616 731.347 671.13 729.514 671.13 C 728.401 671.13 727.42 671.679 726.817 672.519 C 726.215 671.68 725.233 671.13 724.12 671.13 C 722.879 671.13 721.809 671.819 721.24 672.828 C 723.064 676.123 725.89 678.785 729.308 680.402 C 730.945 679.051 732.439 677.095 732.743 675.203 Z  M 753.301 671.767 C 753.019 670.817 752.149 670.12 751.107 670.12 C 750.336 670.12 749.656 670.5 749.239 671.082 C 748.822 670.5 748.142 670.12 747.371 670.12 C 746.101 670.12 745.072 671.149 745.072 672.419 C 745.072 672.599 745.095 672.773 745.134 672.941 C 745.441 674.846 747.482 676.837 749.043 677.502 C 750.819 675.902 752.274 673.955 753.301 671.767 Z " fill="rgb(255,172,51)"/><circle vector-effect="non-scaling-stroke" cx="748" cy="669.125" r="5" fill="rgb(255,120,146)"/><circle vector-effect="non-scaling-stroke" cx="726" cy="669.125" r="5" fill="rgb(255,120,146)"/><circle vector-effect="non-scaling-stroke" cx="743.5" cy="662.625" r="5.5" fill="rgb(245,248,250)"/><circle vector-effect="non-scaling-stroke" cx="730.5" cy="662.625" r="5.5" fill="rgb(245,248,250)"/><circle vector-effect="non-scaling-stroke" cx="730.5" cy="662.625" r="2.5" fill="rgb(41,47,51)"/><circle vector-effect="non-scaling-stroke" cx="743.4999999999999" cy="662.625" r="2.5" fill="rgb(41,47,51)"/><path d=" M 741 676.125 L 733 676.125 C 732.448 676.125 732 675.678 732 675.125 C 732 674.572 732.448 674.125 733 674.125 L 741 674.125 C 741.553 674.125 742 674.572 742 675.125 C 742 675.678 741.553 676.125 741 676.125 Z  M 749.001 657.125 C 748.696 657.125 748.397 656.987 748.2 656.725 C 745.56 653.204 742.139 653.127 741.994 653.125 C 741.444 653.119 741 652.669 741.003 652.12 C 741.006 651.569 741.45 651.125 742 651.125 C 742.184 651.125 746.537 651.175 749.8 655.525 C 750.132 655.967 750.042 656.594 749.6 656.925 C 749.42 657.06 749.21 657.125 749.001 657.125 Z  M 724.999 657.125 C 724.791 657.125 724.58 657.06 724.4 656.925 C 723.958 656.594 723.869 655.967 724.2 655.525 C 727.462 651.175 731.816 651.125 732 651.125 C 732.552 651.125 733 651.573 733 652.125 C 733 652.676 732.555 653.123 732.004 653.125 C 731.849 653.127 728.436 653.211 725.8 656.725 C 725.604 656.987 725.303 657.125 724.999 657.125 Z " fill="rgb(102,69,0)"/><path d=" M 752.625 649.394 C 752.625 647.702 751.253 646.331 749.562 646.331 C 748.535 646.331 747.629 646.838 747.073 647.613 C 746.517 646.838 745.611 646.331 744.584 646.331 C 742.892 646.331 741.521 647.702 741.521 649.394 C 741.521 649.634 741.551 649.866 741.603 650.09 C 742.029 652.733 744.967 655.521 747.073 656.287 C 749.179 655.521 752.117 652.733 752.542 650.091 C 752.595 649.866 752.625 649.634 752.625 649.394 Z  M 731.208 674.533 C 731.208 672.7 729.722 671.214 727.889 671.214 C 726.776 671.214 725.795 671.763 725.192 672.603 C 724.59 671.763 723.608 671.214 722.495 671.214 C 720.662 671.214 719.176 672.7 719.176 674.533 C 719.176 674.793 719.209 675.044 719.265 675.287 C 719.726 678.15 722.909 681.171 725.191 682.001 C 727.473 681.172 730.656 678.151 731.117 675.288 C 731.175 675.044 731.208 674.792 731.208 674.533 Z  M 754.948 672.252 C 754.948 670.982 753.919 669.953 752.649 669.953 C 751.878 669.953 751.198 670.333 750.781 670.915 C 750.364 670.333 749.684 669.953 748.913 669.953 C 747.643 669.953 746.614 670.982 746.614 672.252 C 746.614 672.432 746.637 672.606 746.676 672.774 C 746.995 674.757 749.2 676.85 750.781 677.424 C 752.361 676.85 754.567 674.757 754.885 672.774 C 754.925 672.606 754.948 672.432 754.948 672.252 Z " fill="rgb(221,46,68)"/></g><g/></svg>