<?xml version="1.0" encoding="UTF-8" standalone="no"?>
<!-- Generator: Gravit.io -->

<svg
   style="isolation:isolate"
   viewBox="622.917 560.975 36 36"
   width="36pt"
   height="36pt"
   version="1.1"
   id="svg38"
   sodipodi:docname="panting.svg"
   inkscape:export-filename="panting.png"
   inkscape:export-xdpi="512"
   inkscape:export-ydpi="512"
   inkscape:version="1.2.1 (9c6d41e410, 2022-07-14)"
   xmlns:inkscape="http://www.inkscape.org/namespaces/inkscape"
   xmlns:sodipodi="http://sodipodi.sourceforge.net/DTD/sodipodi-0.dtd"
   xmlns="http://www.w3.org/2000/svg"
   xmlns:svg="http://www.w3.org/2000/svg">
  <defs
     id="defs42" />
  <sodipodi:namedview
     id="namedview40"
     pagecolor="#ffffff"
     bordercolor="#666666"
     borderopacity="1.0"
     inkscape:showpageshadow="2"
     inkscape:pageopacity="0.0"
     inkscape:pagecheckerboard="0"
     inkscape:deskcolor="#d1d1d1"
     inkscape:document-units="pt"
     showgrid="false"
     inkscape:zoom="17.270833"
     inkscape:cx="23.971049"
     inkscape:cy="23.971049"
     inkscape:window-width="1920"
     inkscape:window-height="1057"
     inkscape:window-x="1912"
     inkscape:window-y="-8"
     inkscape:window-maximized="1"
     inkscape:current-layer="svg38" />
  <g
     id="g8">
    <path
       d=" M 658.917 578.975 C 658.917 588.916 650.858 596.975 640.917 596.975 C 630.977 596.975 622.917 588.916 622.917 578.975 C 622.917 569.035 630.977 560.975 640.917 560.975 C 650.858 560.975 658.917 569.035 658.917 578.975 Z "
       fill="rgb(255,204,77)"
       id="path2" />
    <circle
       vector-effect="non-scaling-stroke"
       cx="651.9167604133552"
       cy="583.9751174006205"
       r="5"
       fill="rgb(255,120,146)"
       id="circle4" />
    <circle
       vector-effect="non-scaling-stroke"
       cx="629.9167604133552"
       cy="583.9751174006205"
       r="5"
       fill="rgb(255,120,146)"
       id="circle6" />
  </g>
  <g
     id="g28">
    <path
       d=" M 643.819 587.975 C 643.716 587.975 643.613 587.959 643.51 587.926 C 641.75 587.355 639.895 587.355 638.135 587.926 C 637.611 588.095 637.046 587.809 636.875 587.284 C 636.704 586.759 636.992 586.195 637.518 586.024 C 639.68 585.322 641.965 585.322 644.127 586.024 C 644.652 586.195 644.94 586.759 644.77 587.284 C 644.633 587.705 644.241 587.975 643.819 587.975 Z "
       fill="rgb(101,71,27)"
       id="path10" />
    <path
       d=" M 653.158 573.043 C 652.255 575.788 649.673 577.758 646.664 577.758 C 646.52 577.758 646.375 577.753 646.229 577.744 C 644.752 577.651 643.387 577.089 642.279 576.16 C 642.315 576.655 642.355 577.157 642.415 577.7 C 642.567 579.088 643.299 580.182 644.531 580.863 C 645.351 581.317 646.331 581.551 647.344 581.615 C 649.078 581.724 650.914 581.335 652.217 580.706 C 653.594 580.041 654.489 578.844 654.673 577.421 C 654.856 576.006 654.319 574.497 653.158 573.043 Z "
       fill="rgb(255,255,255)"
       id="path12" />
    <path
       d=" M 644.174 568.558 C 642.877 569.108 642.227 570.859 642.197 573.847 L 642.236 573.915 C 643.133 575.234 644.609 576.139 646.324 576.247 C 646.438 576.254 646.552 576.258 646.665 576.258 C 649.299 576.258 651.514 574.321 651.918 571.734 C 651.803 571.629 651.697 571.522 651.575 571.418 C 647.86 568.248 645.108 568.161 644.174 568.558 Z "
       fill="rgb(101,71,27)"
       id="path14" />
    <path
       d=" M 646.664 577.758 C 649.673 577.758 652.255 575.788 653.158 573.043 C 652.804 572.6 652.387 572.163 651.917 571.734 C 651.513 574.321 649.298 576.258 646.664 576.258 C 646.551 576.258 646.437 576.254 646.323 576.247 C 644.608 576.139 643.132 575.234 642.235 573.915 L 642.196 573.847 C 642.189 574.548 642.217 575.32 642.279 576.16 C 643.387 577.089 644.752 577.651 646.229 577.744 C 646.375 577.754 646.52 577.758 646.664 577.758 Z "
       fill="rgb(244,144,12)"
       id="path16" />
    <circle
       vector-effect="non-scaling-stroke"
       cx="644.2357586433355"
       cy="571.6801174006205"
       r="1.106999999999971"
       fill="rgb(255,255,255)"
       id="circle18" />
    <path
       d=" M 634.982 577.758 C 631.973 577.758 629.391 575.788 628.488 573.043 C 627.327 574.497 626.791 576.006 626.973 577.42 C 627.158 578.843 628.052 580.041 629.429 580.705 C 630.732 581.334 632.567 581.723 634.302 581.614 C 635.315 581.55 636.295 581.317 637.115 580.862 C 638.346 580.181 639.078 579.087 639.231 577.699 C 639.291 577.157 639.331 576.657 639.367 576.163 C 638.264 577.086 636.897 577.65 635.417 577.743 C 635.271 577.754 635.126 577.758 634.982 577.758 Z "
       fill="rgb(255,255,255)"
       id="path20" />
    <path
       d=" M 634.982 576.258 C 635.095 576.258 635.209 576.254 635.323 576.247 C 637.038 576.139 638.514 575.234 639.411 573.915 L 639.45 573.847 C 639.419 570.859 638.77 569.108 637.473 568.558 C 636.539 568.161 633.786 568.248 630.072 571.417 C 629.95 571.521 629.845 571.628 629.729 571.733 C 630.133 574.321 632.348 576.258 634.982 576.258 Z "
       fill="rgb(101,71,27)"
       id="path22" />
    <path
       d=" M 639.449 573.847 L 639.41 573.915 C 638.513 575.234 637.037 576.139 635.322 576.247 C 635.208 576.254 635.094 576.258 634.981 576.258 C 632.347 576.258 630.132 574.321 629.728 571.734 C 629.258 572.163 628.841 572.6 628.487 573.043 C 629.39 575.788 631.972 577.758 634.981 577.758 C 635.125 577.758 635.27 577.753 635.416 577.744 C 636.896 577.651 638.263 577.087 639.366 576.164 C 639.428 575.323 639.457 574.55 639.449 573.847 Z "
       fill="rgb(244,144,12)"
       id="path24" />
    <path
       d=" M 632.604 572.785 C 633.214 572.747 633.678 572.221 633.639 571.611 C 633.601 571.001 633.075 570.537 632.465 570.575 C 631.855 570.613 631.391 571.139 631.429 571.749 C 631.468 572.359 631.994 572.823 632.604 572.785 Z "
       fill="rgb(255,255,255)"
       id="path26" />
  </g>
  <g
     id="g36">
    <path
       d=" M 649.042 590.236 C 649.014 590.236 648.985 590.233 648.958 590.226 C 640.534 588.284 632.962 590.204 632.886 590.224 C 632.775 590.252 632.655 590.229 632.562 590.158 C 632.471 590.086 632.417 589.977 632.417 589.861 C 632.417 586.683 636.13 582.989 640.917 582.989 C 645.704 582.989 649.417 586.683 649.417 589.861 C 649.417 589.975 649.365 590.084 649.275 590.155 C 649.208 590.207 649.126 590.236 649.042 590.236 Z "
       fill="rgb(102,69,0)"
       id="path30" />
    <path
       d=" M 641.546 584.054 L 641.546 584.881 L 640.455 584.882 L 640.455 584.045 C 638.178 584.172 636.264 585.207 635 586.561 L 635.008 587.022 C 635.094 589.954 637.088 592.824 641 592.824 C 644.899 592.824 646.892 589.973 646.991 587.051 L 647 586.767 C 645.771 585.352 643.855 584.23 641.546 584.054 Z "
       fill="rgb(244,171,186)"
       id="path32" />
    <path
       d=" M 640.917 584.024 C 640.76 584.024 640.609 584.038 640.455 584.046 L 640.455 588.493 C 640.455 588.794 640.699 589.038 641 589.038 C 641.301 589.038 641.545 588.794 641.545 588.493 L 641.545 584.055 C 641.338 584.038 641.131 584.024 640.917 584.024 Z "
       fill="rgb(234,89,110)"
       id="path34" />
  </g>
</svg>
