<?xml version="1.0" encoding="UTF-8" standalone="no"?>
<!-- Generator: Gravit.io -->
<svg xmlns="http://www.w3.org/2000/svg" xmlns:xlink="http://www.w3.org/1999/xlink" style="isolation:isolate" viewBox="856.141 514.632 36.859 29.951" width="36.859pt" height="29.951pt"><g><path d=" M 893 527.092 C 893 525.89 892.786 524.737 892.394 523.671 C 892.126 526.812 890.451 528.426 888.702 527.674 C 887.063 526.97 888.167 524.226 888.249 522.916 C 888.386 520.696 888.242 518.155 884.209 516.042 C 885.885 519.248 884.403 521.239 882.849 521.36 C 881.125 521.495 879.546 519.879 880.129 517.256 C 878.242 518.647 878.187 520.987 878.769 522.502 C 879.377 524.08 878.745 525.391 877.264 525.537 C 875.608 525.7 874.689 523.765 875.537 520.68 C 874.069 522.408 873.183 524.647 873.183 527.092 C 873.183 532.564 877.619 537 883.092 537 C 888.564 537 893 532.564 893 527.092 Z " fill="rgb(244,144,12)"/><path d=" M 889.15 530.005 C 889.236 531.803 887.657 532.507 886.807 532.167 C 885.58 531.676 885.909 530.832 885.593 529.083 C 885.277 527.335 884.063 526.121 882.266 525.586 C 883.578 529.277 881.539 530.638 880.471 530.881 C 879.38 531.129 878.284 530.88 878.158 528.545 C 876.885 529.812 876.097 531.566 876.097 533.503 C 876.097 533.717 876.111 533.928 876.13 534.138 C 877.919 535.907 880.377 537 883.092 537 C 885.807 537 888.264 535.907 890.054 534.138 C 890.072 533.928 890.086 533.717 890.086 533.503 C 890.086 532.228 889.745 531.034 889.15 530.005 Z " fill="rgb(255,204,77)"/></g><g><path d=" M 857.791 527.487 C 857.791 527.487 854.708 535.135 857.135 536.898 L 866.036 543.362 C 868.463 545.125 875.813 541.811 875.813 541.811 C 875.813 541.811 882.874 545.703 885.224 542.467 L 886.4 540.848 C 886.453 540.776 886.485 540.694 886.533 540.62 C 887.227 540.701 887.944 540.424 888.384 539.818 C 889.033 538.924 888.834 537.673 887.941 537.024 L 863.667 519.396 C 861.879 518.098 859.378 518.494 858.08 520.282 L 856.905 521.9 C 855.606 523.687 856.003 526.189 857.791 527.487 Z " fill="rgb(225,232,237)"/><path d=" M 885.224 542.467 L 886.4 540.848 C 886.453 540.776 886.485 540.694 886.533 540.62 C 887.227 540.701 887.944 540.424 888.384 539.818 C 889.033 538.924 888.834 537.673 887.941 537.024 L 863.667 519.396 C 861.879 518.098 859.378 518.494 858.08 520.282 L 856.905 521.9 C 856.7 522.182 856.553 522.484 856.432 522.793 L 884.474 543.158 C 884.752 542.974 885.013 542.757 885.224 542.467 Z " fill="rgb(41,47,51)"/><path d=" M 876.686 528.85 C 876.45 529.082 876.226 529.33 876.025 529.607 C 874.079 532.287 874.673 536.04 877.355 537.987 C 880.035 539.934 883.788 539.339 885.735 536.658 C 885.936 536.381 886.103 536.092 886.25 535.796 L 876.686 528.85 Z  M 862.93 518.861 C 862.694 519.092 862.471 519.34 862.27 519.617 C 860.323 522.298 860.918 526.051 863.599 527.998 C 866.28 529.945 870.033 529.349 871.98 526.669 C 872.181 526.392 872.347 526.103 872.495 525.807 L 862.93 518.861 Z " fill="rgb(102,117,127)"/><path d=" M 884.117 535.483 C 882.82 537.269 880.316 537.666 878.53 536.369 C 876.743 535.072 876.346 532.568 877.644 530.782 C 878.941 528.996 881.444 528.599 883.231 529.896 C 885.017 531.193 885.414 533.697 884.117 535.483 Z " fill="rgb(41,47,51)"/><path d=" M 882.499 534.308 C 881.85 535.201 880.598 535.399 879.705 534.751 C 878.812 534.102 878.613 532.85 879.262 531.957 C 879.911 531.064 881.162 530.865 882.055 531.514 C 882.949 532.163 883.147 533.414 882.499 534.308 Z " fill="rgb(225,232,237)"/><path d=" M 870.361 525.493 C 869.064 527.28 866.561 527.677 864.774 526.379 C 862.988 525.082 862.591 522.579 863.888 520.792 C 865.186 519.006 867.689 518.609 869.475 519.906 C 871.262 521.204 871.659 523.707 870.361 525.493 Z " fill="rgb(41,47,51)"/><path d=" M 868.743 524.318 C 868.095 525.211 866.843 525.41 865.95 524.761 C 865.056 524.113 864.858 522.861 865.507 521.968 C 866.155 521.075 867.407 520.876 868.3 521.525 C 869.193 522.173 869.392 523.425 868.743 524.318 Z " fill="rgb(225,232,237)"/><path d=" M 861.403 541.233 C 861.727 540.786 862.352 540.687 862.799 541.012 L 865.227 542.774 C 865.673 543.099 865.773 543.725 865.448 544.171 C 865.124 544.618 864.498 544.717 864.052 544.393 L 861.624 542.63 C 861.177 542.305 861.078 541.68 861.403 541.233 Z " fill="rgb(221,46,68)"/><path d=" M 860.593 540.645 C 860.918 540.199 861.543 540.099 861.99 540.424 L 863.608 541.599 C 864.055 541.924 864.154 542.549 863.83 542.996 C 863.506 543.443 862.88 543.542 862.433 543.217 L 860.815 542.042 C 860.368 541.717 860.269 541.092 860.593 540.645 Z  M 864.485 533.585 L 858.821 529.471 C 858.821 529.471 857.501 534.692 858.311 535.28 L 861.547 537.63 L 864.485 533.585 Z  M 863.165 538.806 L 867.211 541.744 C 868.829 542.919 874.195 540.636 874.195 540.636 L 866.104 534.76 L 863.165 538.806 Z " fill="rgb(85,172,238)"/></g><g><path d=" M 870 518.85 C 870 518.391 869.918 517.951 869.769 517.544 C 869.666 518.743 869.027 519.359 868.359 519.072 C 867.734 518.804 868.155 517.756 868.186 517.256 C 868.239 516.409 868.184 515.439 866.644 514.632 C 867.284 515.856 866.718 516.616 866.125 516.662 C 865.467 516.714 864.864 516.097 865.087 515.095 C 864.367 515.626 864.346 516.52 864.568 517.098 C 864.8 517.7 864.559 518.201 863.993 518.256 C 863.361 518.319 863.01 517.58 863.334 516.403 C 862.774 517.062 862.436 517.917 862.436 518.85 C 862.436 520.939 864.129 522.632 866.218 522.632 C 868.307 522.632 870 520.939 870 518.85 Z " fill="rgb(244,144,12)"/><path d=" M 868.53 519.962 C 868.563 520.648 867.961 520.917 867.636 520.787 C 867.168 520.6 867.293 520.277 867.173 519.61 C 867.052 518.943 866.589 518.479 865.903 518.275 C 866.403 519.684 865.625 520.203 865.218 520.296 C 864.801 520.391 864.383 520.296 864.335 519.405 C 863.849 519.888 863.548 520.558 863.548 521.297 C 863.548 521.379 863.553 521.46 863.56 521.54 C 864.243 522.215 865.181 522.632 866.218 522.632 C 867.254 522.632 868.192 522.215 868.875 521.54 C 868.882 521.46 868.888 521.379 868.888 521.297 C 868.888 520.811 868.758 520.355 868.53 519.962 Z " fill="rgb(255,204,77)"/></g></svg>