<?xml version="1.0" encoding="UTF-8" standalone="no"?>
<!-- Generator: Gravit.io -->
<svg xmlns="http://www.w3.org/2000/svg" xmlns:xlink="http://www.w3.org/1999/xlink" style="isolation:isolate" viewBox="691.5 608.2 36 36" width="36pt" height="36pt"><g><circle vector-effect="non-scaling-stroke" cx="709.5" cy="626.1999412996897" r="18" fill="rgb(255,204,77)"/><path d=" M 715.5 624.2 L 719.5 624.2 L 719.5 643.2 L 715.5 643.154 L 715.5 624.2 Z  M 699.5 643.2 L 703.5 643.154 L 703.5 624.2 L 699.5 624.2 L 699.5 643.2 Z " fill="rgb(93,173,236)"/><ellipse vector-effect="non-scaling-stroke" cx="709.5" cy="642.1999412996897" rx="18" ry="2" fill="rgb(93,173,236)"/><path d=" M 712.496 635.2 C 712.393 635.2 712.29 635.184 712.187 635.151 C 710.427 634.58 708.572 634.58 706.812 635.151 C 706.288 635.32 705.723 635.034 705.552 634.509 C 705.381 633.984 705.669 633.42 706.195 633.249 C 708.357 632.547 710.642 632.547 712.804 633.249 C 713.329 633.42 713.617 633.984 713.447 634.509 C 713.31 634.93 712.918 635.2 712.496 635.2 Z " fill="rgb(101,71,27)"/><path d=" M 721.835 620.268 C 720.932 623.013 718.35 624.983 715.341 624.983 C 715.197 624.983 715.052 624.978 714.906 624.969 C 713.429 624.876 712.064 624.314 710.956 623.385 C 710.992 623.88 711.032 624.382 711.092 624.925 C 711.244 626.313 711.976 627.407 713.208 628.088 C 714.028 628.542 715.008 628.776 716.021 628.84 C 717.755 628.949 719.591 628.56 720.894 627.931 C 722.271 627.266 723.166 626.069 723.35 624.646 C 723.533 623.231 722.996 621.722 721.835 620.268 Z " fill="rgb(255,255,255)"/><path d=" M 712.851 615.783 C 711.554 616.333 710.904 618.084 710.874 621.072 L 710.913 621.14 C 711.81 622.459 713.286 623.364 715.001 623.472 C 715.115 623.479 715.229 623.483 715.342 623.483 C 717.976 623.483 720.191 621.546 720.595 618.959 C 720.48 618.854 720.374 618.747 720.252 618.643 C 716.537 615.473 713.785 615.386 712.851 615.783 Z " fill="rgb(101,71,27)"/><path d=" M 715.341 624.983 C 718.35 624.983 720.932 623.013 721.835 620.268 C 721.481 619.825 721.064 619.388 720.594 618.959 C 720.19 621.546 717.975 623.483 715.341 623.483 C 715.228 623.483 715.114 623.479 715 623.472 C 713.285 623.364 711.809 622.459 710.912 621.14 L 710.873 621.072 C 710.866 621.773 710.894 622.545 710.956 623.385 C 712.064 624.314 713.429 624.876 714.906 624.969 C 715.052 624.979 715.197 624.983 715.341 624.983 Z " fill="rgb(244,144,12)"/><circle vector-effect="non-scaling-stroke" cx="712.9129999999999" cy="618.9049412996898" r="1.106999999999971" fill="rgb(255,255,255)"/><path d=" M 703.659 624.983 C 700.65 624.983 698.068 623.013 697.165 620.268 C 696.004 621.722 695.468 623.231 695.65 624.645 C 695.835 626.068 696.729 627.266 698.106 627.93 C 699.409 628.559 701.244 628.948 702.979 628.839 C 703.992 628.775 704.972 628.542 705.792 628.087 C 707.023 627.406 707.755 626.312 707.908 624.924 C 707.968 624.382 708.008 623.882 708.044 623.388 C 706.941 624.311 705.574 624.875 704.094 624.968 C 703.948 624.979 703.803 624.983 703.659 624.983 Z " fill="rgb(255,255,255)"/><path d=" M 703.659 623.483 C 703.772 623.483 703.886 623.479 704 623.472 C 705.715 623.364 707.191 622.459 708.088 621.14 L 708.127 621.072 C 708.096 618.084 707.447 616.333 706.15 615.783 C 705.216 615.386 702.463 615.473 698.749 618.642 C 698.627 618.746 698.522 618.853 698.406 618.958 C 698.81 621.546 701.025 623.483 703.659 623.483 Z " fill="rgb(101,71,27)"/><path d=" M 708.126 621.072 L 708.087 621.14 C 707.19 622.459 705.714 623.364 703.999 623.472 C 703.885 623.479 703.771 623.483 703.658 623.483 C 701.024 623.483 698.809 621.546 698.405 618.959 C 697.935 619.388 697.518 619.825 697.164 620.268 C 698.067 623.013 700.649 624.983 703.658 624.983 C 703.802 624.983 703.947 624.978 704.093 624.969 C 705.573 624.876 706.94 624.312 708.043 623.389 C 708.105 622.548 708.134 621.775 708.126 621.072 Z " fill="rgb(244,144,12)"/><path d=" M 701.281 620.01 C 701.891 619.972 702.355 619.446 702.316 618.836 C 702.278 618.226 701.752 617.762 701.142 617.8 C 700.532 617.838 700.068 618.364 700.106 618.974 C 700.145 619.584 700.671 620.048 701.281 620.01 Z " fill="rgb(255,255,255)"/></g></svg>