<?xml version="1.0" encoding="UTF-8" standalone="no"?>
<!-- Generator: Gravit.io -->
<svg xmlns="http://www.w3.org/2000/svg" xmlns:xlink="http://www.w3.org/1999/xlink" style="isolation:isolate" viewBox="755 465 36 36" width="36pt" height="36pt"><g><path d=" M 791 483 C 791 492.941 782.941 501 773 501 C 763.06 501 755 492.941 755 483 C 755 473.06 763.06 465 773 465 C 782.941 465 791 473.06 791 483 Z " fill="rgb(218,47,71)"/><g><g><path d=" M 778.485 492.879 C 778.474 492.835 777.34 488.5 773 488.5 C 768.66 488.5 767.526 492.835 767.515 492.879 C 767.462 493.092 767.559 493.31 767.747 493.423 C 767.935 493.535 768.18 493.509 768.343 493.363 C 768.352 493.356 769.356 492.5 773 492.5 C 776.59 492.5 777.617 493.33 777.656 493.363 C 777.751 493.454 777.875 493.5 778 493.5 C 778.084 493.5 778.169 493.479 778.246 493.436 C 778.442 493.325 778.54 493.097 778.485 492.879 Z " fill="rgb(41,47,51)"/></g><path d=" M 777 485 L 781 485 L 781 500 L 777 499.964 L 777 485 Z " fill="rgb(93,173,236)"/><path d=" M 765 500 L 769 499.964 L 769 485 L 765 485 L 765 500 Z " fill="rgb(93,173,236)"/><ellipse vector-effect="non-scaling-stroke" cx="773.0000000000002" cy="499" rx="18" ry="2" fill="rgb(93,173,236)"/></g><path d=" M 770.707 482.293 C 767.452 479.038 762.221 479 762 479 C 761.448 479 761.001 479.447 761.001 479.998 C 761 480.55 761.447 480.998 761.999 481 C 762.028 481 763.924 481.022 765.982 481.737 C 765.389 482.377 765 483.371 765 484.5 C 765 486.434 766.119 488 767.5 488 C 768.881 488 770 486.434 770 484.5 C 770 484.326 769.981 484.16 769.963 483.993 C 769.976 483.993 769.988 484 770 484 C 770.256 484 770.512 483.902 770.707 483.707 C 771.098 483.316 771.098 482.684 770.707 482.293 Z " fill="rgb(41,47,51)"/><path d=" M 784 479 C 783.779 479 778.549 479.038 775.293 482.293 C 774.902 482.684 774.902 483.316 775.293 483.707 C 775.488 483.902 775.744 484 776 484 C 776.013 484 776.024 483.993 776.036 483.993 C 776.02 484.16 776 484.326 776 484.5 C 776 486.434 777.119 488 778.5 488 C 779.881 488 781 486.434 781 484.5 C 781 483.371 780.611 482.377 780.018 481.737 C 782.076 481.022 783.972 481 784.002 481 C 784.553 480.998 785 480.55 784.999 479.998 C 784.998 479.447 784.552 479 784 479 Z " fill="rgb(41,47,51)"/></g></svg>