<?xml version="1.0" encoding="UTF-8" standalone="no"?>
<!-- Generator: Gravit.io -->
<svg xmlns="http://www.w3.org/2000/svg" xmlns:xlink="http://www.w3.org/1999/xlink" style="isolation:isolate" viewBox="751.312 497.156 36 36" width="36pt" height="36pt"><g style="isolation:isolate"><g><path d=" M 787.312 515.156 C 787.312 525.097 779.253 533.156 769.312 533.156 C 759.373 533.156 751.312 525.097 751.312 515.156 C 751.312 505.216 759.373 497.156 769.312 497.156 C 779.253 497.156 787.312 505.216 787.312 515.156 Z " fill="rgb(218,47,71)"/><path d=" M 776.798 527.035 C 776.753 526.856 775.629 522.656 769.312 522.656 C 762.995 522.656 761.873 526.856 761.828 527.035 C 761.772 527.252 761.87 527.477 762.064 527.589 C 762.259 527.698 762.503 527.668 762.665 527.512 C 762.684 527.493 764.618 525.656 769.312 525.656 C 774.007 525.656 775.942 527.493 775.961 527.511 C 776.056 527.606 776.184 527.656 776.312 527.656 C 776.396 527.656 776.482 527.635 776.559 527.592 C 776.754 527.48 776.853 527.253 776.798 527.035 Z " fill="rgb(102,69,0)"/><path d=" M 776.798 526.879 C 776.753 526.7 775.629 522.5 769.312 522.5 C 762.994 522.5 761.873 526.7 761.828 526.879 C 761.772 527.096 761.87 527.321 762.064 527.433 C 762.259 527.542 762.503 527.512 762.664 527.356 C 762.684 527.337 764.618 525.5 769.312 525.5 C 774.007 525.5 775.942 527.337 775.961 527.355 C 776.056 527.45 776.184 527.5 776.312 527.5 C 776.396 527.5 776.482 527.479 776.559 527.436 C 776.754 527.324 776.853 527.097 776.798 526.879 Z " fill="rgb(41,47,51)"/><path d=" M 775.313 520.156 C 775.313 517.397 777.553 515.156 780.313 515.156 C 783.072 515.156 785.313 517.397 785.313 520.156 C 785.313 522.916 783.072 525.156 780.313 525.156 C 777.553 525.156 775.313 522.916 775.313 520.156 Z  M 753.313 520.156 C 753.313 517.397 755.553 515.156 758.313 515.156 C 761.072 515.156 763.313 517.397 763.313 520.156 C 763.313 522.916 761.072 525.156 758.313 525.156 C 755.553 525.156 753.313 522.916 753.313 520.156 Z " fill-rule="evenodd" fill="rgb(255,120,146)"/><path d=" M 772.812 518.156 L 776.812 518.156 L 776.812 532.156 L 772.812 532.122 L 772.812 518.156 Z  M 761.813 532.156 L 765.813 532.122 L 765.813 518.156 L 761.813 518.156 L 761.813 532.156 Z " fill-rule="evenodd" fill="rgb(93,173,236)"/><path d=" M 767.019 514.293 C 763.764 511.038 758.533 511 758.312 511 C 757.76 511 757.313 511.447 757.313 511.998 C 757.312 512.55 757.759 512.998 758.311 513 C 758.34 513 760.236 513.022 762.295 513.737 C 761.701 514.377 761.312 515.371 761.312 516.5 C 761.312 518.434 762.432 520 763.812 520 C 765.193 520 766.312 518.434 766.312 516.5 C 766.312 516.326 766.293 516.16 766.276 515.993 C 766.288 515.993 766.3 516 766.312 516 C 766.568 516 766.824 515.902 767.019 515.707 C 767.41 515.316 767.41 514.684 767.019 514.293 Z " fill="rgb(41,47,51)"/><path d=" M 780.312 511 C 780.091 511 774.861 511.038 771.605 514.293 C 771.215 514.684 771.215 515.316 771.605 515.707 C 771.801 515.902 772.056 516 772.312 516 C 772.326 516 772.336 515.993 772.348 515.993 C 772.333 516.16 772.312 516.326 772.312 516.5 C 772.312 518.434 773.431 520 774.812 520 C 776.194 520 777.312 518.434 777.312 516.5 C 777.312 515.371 776.923 514.377 776.33 513.737 C 778.388 513.022 780.284 513 780.315 513 C 780.865 512.998 781.312 512.55 781.312 511.998 C 781.31 511.447 780.864 511 780.312 511 Z " fill="rgb(41,47,51)"/><ellipse vector-effect="non-scaling-stroke" cx="769.3125001188105" cy="531.15625" rx="18" ry="2" fill="rgb(93,173,236)"/></g></g></svg>