<?xml version="1.0" encoding="UTF-8" standalone="no"?>
<!DOCTYPE svg PUBLIC "-//W3C//DTD SVG 1.1//EN" "http://www.w3.org/Graphics/SVG/1.1/DTD/svg11.dtd">
<svg width="100%" height="100%" viewBox="0 0 256 256" version="1.1" xmlns="http://www.w3.org/2000/svg" xmlns:xlink="http://www.w3.org/1999/xlink" xml:space="preserve" xmlns:serif="http://www.serif.com/" style="fill-rule:evenodd;clip-rule:evenodd;stroke-linejoin:round;stroke-miterlimit:2;">
    <g id="_1f621" serif:id="1f621" transform="matrix(7.11111,0,0,7.11111,128,128)">
        <g transform="matrix(1,0,0,1,-18,-18)">
            <path d="M36,18C36,27.941 27.941,36 18,36C8.06,36 0,27.941 0,18C0,8.06 8.06,0 18,0C27.941,0 36,8.06 36,18" style="fill:rgb(218,47,71);fill-rule:nonzero;"/>
            <g transform="matrix(1,0,0,1,0,-3)">
                <path d="M25.485,29.879C25.44,29.7 24.317,25.5 18,25.5C11.682,25.5 10.56,29.7 10.515,29.879C10.46,30.096 10.558,30.321 10.752,30.433C10.947,30.542 11.191,30.512 11.352,30.356C11.371,30.337 13.306,28.5 18,28.5C22.694,28.5 24.63,30.337 24.648,30.355C24.744,30.45 24.872,30.5 25,30.5C25.084,30.5 25.169,30.479 25.246,30.436C25.442,30.324 25.54,30.097 25.485,29.879Z" style="fill:rgb(41,47,51);fill-rule:nonzero;"/>
            </g>
            <g transform="matrix(1,0,0,1,0,-3)">
                <path d="M15.707,17.293C12.452,14.038 7.221,14 7,14C6.448,14 6.001,14.447 6.001,14.998C6,15.55 6.447,15.998 6.999,16C7.028,16 8.924,16.022 10.982,16.737C10.389,17.377 10,18.371 10,19.5C10,21.434 11.119,23 12.5,23C13.881,23 15,21.434 15,19.5C15,19.326 14.981,19.16 14.963,18.993C14.976,18.993 14.988,19 15,19C15.256,19 15.512,18.902 15.707,18.707C16.098,18.316 16.098,17.684 15.707,17.293ZM29,14C28.779,14 23.549,14.038 20.293,17.293C19.902,17.684 19.902,18.316 20.293,18.707C20.488,18.902 20.744,19 21,19C21.013,19 21.024,18.993 21.036,18.993C21.02,19.16 21,19.326 21,19.5C21,21.434 22.119,23 23.5,23C24.881,23 26,21.434 26,19.5C26,18.371 25.611,17.377 25.018,16.737C27.076,16.022 28.972,16 29.002,16C29.553,15.998 30,15.55 29.999,14.998C29.998,14.447 29.552,14 29,14Z" style="fill:rgb(41,47,51);fill-rule:nonzero;"/>
            </g>
        </g>
    </g>
    <g id="_1f624" serif:id="1f624" transform="matrix(7.11111,0,0,7.11111,128,128)">
        <g transform="matrix(1,0,0,1,-18,-18)">
            <path d="M15.391,20.08C14.938,19.885 14.412,20.053 14.152,20.47L9.152,28.47C8.96,28.779 8.949,29.167 9.126,29.485C9.302,29.803 9.636,30 10,30L13,30C13.459,30 13.859,29.688 13.97,29.242L15.97,21.242C16.089,20.766 15.844,20.272 15.391,20.08ZM26.848,28.47L21.848,20.47C21.586,20.052 21.061,19.886 20.61,20.08C20.157,20.272 19.911,20.766 20.031,21.242L22.031,29.242C22.142,29.688 22.541,30 23,30L26,30C26.363,30 26.698,29.803 26.875,29.484C27.051,29.167 27.041,28.778 26.848,28.47Z" style="fill:rgb(245,248,250);fill-rule:nonzero;"/>
            <path d="M31.982,30.178C31.985,30.118 32,30.061 32,30C32,28.344 30.656,27 29,27C27.973,27 27.068,27.518 26.527,28.305C26.057,28.11 25.541,28 25,28C22.791,28 21,29.791 21,32C21,34.209 22.791,36 25,36C26.365,36 27.568,35.313 28.29,34.269C28.77,35.289 29.798,36 31,36C32.657,36 34,34.657 34,33C34,31.688 33.154,30.586 31.982,30.178ZM11,28C10.458,28 9.944,28.11 9.473,28.305C8.932,27.518 8.027,27 7,27C5.344,27 4,28.344 4,30C4,30.061 4.014,30.118 4.018,30.178C2.846,30.586 2,31.688 2,33C2,34.657 3.343,36 5,36C6.202,36 7.231,35.289 7.709,34.269C8.432,35.313 9.634,36 11,36C13.209,36 15,34.209 15,32C15,29.791 13.209,28 11,28Z" style="fill:rgb(225,232,237);fill-rule:nonzero;"/>
        </g>
    </g>
</svg>
