<?xml version="1.0" encoding="UTF-8" standalone="no"?>
<!-- Generator: Gravit.io -->
<svg xmlns="http://www.w3.org/2000/svg" xmlns:xlink="http://www.w3.org/1999/xlink" style="isolation:isolate" viewBox="0 0 45 45" width="45pt" height="45pt"><defs><clipPath id="_clipPath_OZ3eZ0K0NoivBuQ8jLCBYGUweQUqgsRh"><rect width="45" height="45"/></clipPath></defs><g clip-path="url(#_clipPath_OZ3eZ0K0NoivBuQ8jLCBYGUweQUqgsRh)"><g><g><clipPath id="_clipPath_PSBtqtxEIt9D7nTL1nWANqYckZ27dOB3"><path d=" M 0 0 L 45 0 L 45 45 L 0 45 L 0 0 Z " fill="rgb(255,255,255)"/></clipPath><g clip-path="url(#_clipPath_PSBtqtxEIt9D7nTL1nWANqYckZ27dOB3)"><g><g><path d=" M 45 22.5 C 45 34.926 34.926 45 22.5 45 C 10.075 45 0 34.926 0 22.5 C 0 10.075 10.075 0 22.5 0 C 34.926 0 45 10.075 45 22.5 Z " fill="rgb(255,204,77)"/></g><g><path d=" M 7.5 16.25 C 6.81 16.25 6.25 15.69 6.25 15 C 6.25 14.311 6.806 13.752 7.495 13.75 C 7.689 13.747 11.955 13.643 15.25 9.25 C 15.664 8.7 16.447 8.585 17 9 C 17.552 9.414 17.664 10.197 17.25 10.75 C 13.173 16.187 7.73 16.25 7.5 16.25 Z " fill="rgb(102,69,0)"/></g><g><path d=" M 37.5 16.25 C 37.27 16.25 31.829 16.187 27.75 10.75 C 27.335 10.197 27.448 9.414 28 9 C 28.553 8.584 29.335 8.698 29.75 9.25 C 33.05 13.651 37.326 13.749 37.508 13.75 C 38.195 13.758 38.75 14.32 38.746 15.006 C 38.743 15.695 38.188 16.25 37.5 16.25 Z " fill="rgb(102,69,0)"/></g><g><path d=" M 38.25 25.25 C 38.107 25.143 35.836 23.468 32.442 22.32 C 32.476 22.176 32.5 22.029 32.5 21.875 C 32.5 21.414 32.327 20.996 32.051 20.67 C 34.305 20.019 36.218 20 36.252 20 C 36.941 19.998 37.499 19.438 37.498 18.748 C 37.497 18.059 36.94 17.5 36.249 17.5 C 35.974 17.5 29.436 17.546 25.366 21.616 C 25.008 21.974 24.901 22.512 25.096 22.979 C 25.288 23.447 25.745 23.75 26.249 23.75 C 31.987 23.75 36.705 27.215 36.752 27.251 C 36.977 27.418 37.238 27.499 37.498 27.499 C 37.879 27.499 38.256 27.325 38.501 26.998 C 38.913 26.445 38.801 25.664 38.25 25.25 Z " fill="rgb(102,69,0)"/></g><g><path d=" M 19.634 21.616 C 15.565 17.547 9.026 17.5 8.75 17.5 C 8.06 17.5 7.501 18.059 7.501 18.749 C 7.5 19.437 8.059 19.999 8.749 20 C 8.781 20 10.696 20.02 12.949 20.67 C 12.674 20.996 12.5 21.414 12.5 21.875 C 12.5 22.029 12.524 22.176 12.559 22.32 C 9.164 23.467 6.893 25.143 6.75 25.25 C 6.198 25.664 6.086 26.448 6.5 27 C 6.745 27.327 7.121 27.5 7.501 27.5 C 7.761 27.5 8.025 27.419 8.25 27.25 C 8.296 27.216 12.984 23.75 18.75 23.75 C 19.255 23.75 19.711 23.446 19.905 22.979 C 20.099 22.511 19.991 21.974 19.634 21.616 Z " fill="rgb(102,69,0)"/></g><g><path d=" M 22.5 37.5 C 22.12 37.5 21.761 37.328 21.524 37.031 L 17.531 32.041 L 14.75 35.75 C 14.532 36.04 14.2 36.221 13.839 36.246 C 13.476 36.274 13.121 36.14 12.866 35.884 L 11.616 34.634 C 11.128 34.145 11.128 33.355 11.616 32.866 C 12.105 32.377 12.895 32.377 13.384 32.866 L 13.615 33.096 L 16.5 29.25 C 16.733 28.94 17.094 28.756 17.48 28.75 C 17.85 28.737 18.234 28.916 18.476 29.219 L 22.5 34.249 L 26.524 29.219 C 26.765 28.917 27.129 28.75 27.52 28.75 C 27.906 28.756 28.267 28.94 28.5 29.25 L 31.385 33.096 L 31.616 32.866 C 32.105 32.377 32.895 32.377 33.384 32.866 C 33.872 33.355 33.872 34.145 33.384 34.634 L 32.134 35.884 C 31.877 36.14 31.536 36.276 31.161 36.246 C 30.8 36.221 30.468 36.04 30.25 35.75 L 27.469 32.041 L 23.476 37.031 C 23.239 37.328 22.88 37.5 22.5 37.5 Z " fill="rgb(102,69,0)"/></g><g><path d=" M 30.988 40.098 C 30.988 40.098 32.1 38.862 31.69 37.741 C 31.27 36.582 30.285 36.868 30.285 36.868 C 30.285 36.868 31.282 35.992 30.693 34.646 C 30.139 33.378 28.908 33.709 28.908 33.709 C 28.908 33.709 29.708 32.67 29.046 31.408 C 28.488 30.346 27.077 30.484 27.077 30.484 C 27.077 30.484 27.102 29.596 27.576 29 C 27.916 28.429 28.522 27.101 27.576 26.09 C 26.631 25.076 25.574 25.632 25.111 26.065 C 24.649 26.5 23.565 28.945 21.545 30.836 C 21.329 31.037 20.318 31.98 20.196 32.097 C 19.691 32.572 19.277 32.467 19.438 31.795 C 19.654 30.897 20.257 29.959 20.196 28.774 C 20.287 27.486 19.919 26.878 19.438 26.065 C 18.672 25.176 17.779 24.705 16.834 24.89 C 15.358 25.179 14.928 26.454 16.14 27.544 C 17.953 29.174 15.496 31.35 14.942 32.995 C 13.639 36.861 13.366 39.239 16.236 42.313 C 19.366 45.666 24.647 45.938 28 42.807 C 28.178 42.644 30.988 40.098 30.988 40.098 Z " fill="rgb(241,144,32)"/></g></g></g></g></g></g></svg>