<?xml version="1.0" encoding="UTF-8" standalone="no"?>
<!-- Generator: Gravit.io -->
<svg xmlns="http://www.w3.org/2000/svg" xmlns:xlink="http://www.w3.org/1999/xlink" style="isolation:isolate" viewBox="736.761 435 41.479 33.812" width="41.479pt" height="33.812pt"><g><path d=" M 774 458.807 C 774 461.016 772.209 460.807 770 460.807 L 745 460.807 C 742.791 460.807 741 461.016 741 458.807 L 743 444.812 C 743.293 443.062 744 442.812 745 442.812 L 770 442.812 C 771 442.812 771.791 443.02 772 444.812 L 774 458.807 Z " fill="rgb(230,147,147)"/><path d=" M 768 450.312 C 768 451.141 767.328 451.812 766.5 451.812 L 748.5 451.812 C 747.671 451.812 747 451.141 747 450.312 C 747 449.483 747.672 448.812 748.5 448.812 L 766.5 448.812 C 767.328 448.812 768 449.483 768 450.312 Z " fill="rgb(41,47,51)"/><path d=" M 765.75 451 L 765.75 437 C 765.75 435.895 764.855 435 763.75 435 L 750.75 435 C 749.646 435 748.75 435.895 748.75 437 L 748.75 451 L 765.75 451 Z " fill="rgb(255,217,131)"/><path d=" M 774 458.812 C 774 457.708 773.104 456.812 772 456.812 L 743 456.812 C 741.896 456.812 741 457.708 741 458.812 L 741 466.812 C 741 467.916 741.896 468.812 743 468.812 L 772 468.812 C 773.104 468.812 774 467.916 774 466.812 L 774 458.812 Z " fill="rgb(225,96,96)"/><path d=" M 763.5 438.812 C 763.5 439.088 763.276 439.312 763 439.312 L 755.5 439.312 C 755.224 439.312 755 439.088 755 438.812 C 755 438.536 755.224 438.312 755.5 438.312 L 763 438.312 C 763.276 438.312 763.5 438.536 763.5 438.812 Z  M 763.5 442.812 C 763.5 443.088 763.276 443.312 763 443.312 L 755.5 443.312 C 755.224 443.312 755 443.088 755 442.812 C 755 442.536 755.224 442.312 755.5 442.312 L 763 442.312 C 763.276 442.312 763.5 442.536 763.5 442.812 Z  M 763.5 446.812 C 763.5 447.088 763.276 447.312 763 447.312 L 755.5 447.312 C 755.224 447.312 755 447.088 755 446.812 C 755 446.536 755.224 446.312 755.5 446.312 L 763 446.312 C 763.276 446.312 763.5 446.536 763.5 446.812 Z " fill="rgb(193,105,79)"/><g><circle vector-effect="non-scaling-stroke" cx="752.5" cy="438.812" r="1" fill="rgb(193,105,79)"/><circle vector-effect="non-scaling-stroke" cx="752.5" cy="442.812" r="1" fill="rgb(193,105,79)"/><circle vector-effect="non-scaling-stroke" cx="752.5" cy="446.812" r="1" fill="rgb(193,105,79)"/></g></g><g><circle vector-effect="non-scaling-stroke" cx="768.4999999999999" cy="461.8119999999999" r="5" fill="rgb(255,120,146)"/><circle vector-effect="non-scaling-stroke" cx="746.4999999999999" cy="461.8119999999999" r="5" fill="rgb(255,120,146)"/><path d=" M 769.501 449.812 C 769.196 449.812 768.897 449.674 768.7 449.412 C 766.06 445.891 762.639 445.814 762.494 445.812 C 761.944 445.806 761.5 445.356 761.503 444.807 C 761.506 444.256 761.95 443.812 762.5 443.812 C 762.684 443.812 767.037 443.862 770.3 448.212 C 770.632 448.654 770.542 449.281 770.1 449.612 C 769.92 449.747 769.71 449.812 769.501 449.812 Z " fill="rgb(41,47,51)"/><path d=" M 745.499 449.812 C 745.291 449.812 745.08 449.747 744.9 449.612 C 744.458 449.281 744.369 448.654 744.7 448.212 C 747.962 443.862 752.316 443.812 752.5 443.812 C 753.052 443.812 753.5 444.26 753.5 444.812 C 753.5 445.363 753.055 445.81 752.504 445.812 C 752.349 445.814 748.936 445.898 746.3 449.412 C 746.104 449.674 745.803 449.812 745.499 449.812 Z " fill="rgb(41,47,51)"/></g><g><path d=" M 761.5 465.812 C 761.5 468.575 759.709 468.812 757.5 468.812 C 755.29 468.812 753.5 468.575 753.5 465.812 C 753.5 463.051 755.29 459.812 757.5 459.812 C 759.709 459.812 761.5 463.051 761.5 465.812 Z " fill="rgb(41,47,51)"/><ellipse vector-effect="non-scaling-stroke" cx="757.5" cy="465.812" rx="3" ry="2" fill="rgb(231,90,112)"/></g><g><path d=" M 769.835 453.343 C 768.932 456.088 766.35 458.058 763.341 458.058 C 763.197 458.058 763.052 458.053 762.906 458.044 C 761.429 457.951 760.064 457.389 758.956 456.46 C 758.992 456.955 759.032 457.457 759.092 458 C 759.244 459.388 759.976 460.482 761.208 461.163 C 762.028 461.617 763.008 461.851 764.021 461.915 C 765.755 462.024 767.591 461.635 768.894 461.006 C 770.271 460.341 771.166 459.144 771.35 457.721 C 771.533 456.306 770.996 454.797 769.835 453.343 Z " fill="rgb(255,255,255)"/><path d=" M 760.851 448.858 C 759.554 449.408 758.904 451.159 758.874 454.147 L 758.913 454.215 C 759.81 455.534 761.286 456.439 763.001 456.547 C 763.115 456.554 763.229 456.558 763.342 456.558 C 765.976 456.558 768.191 454.621 768.595 452.034 C 768.48 451.929 768.374 451.822 768.252 451.718 C 764.537 448.548 761.785 448.461 760.851 448.858 Z " fill="rgb(101,71,27)"/><path d=" M 763.341 458.058 C 766.35 458.058 768.932 456.088 769.835 453.343 C 769.481 452.9 769.064 452.463 768.594 452.034 C 768.19 454.621 765.975 456.558 763.341 456.558 C 763.228 456.558 763.114 456.554 763 456.547 C 761.285 456.439 759.809 455.534 758.912 454.215 L 758.873 454.147 C 758.866 454.848 758.894 455.62 758.956 456.46 C 760.064 457.389 761.429 457.951 762.906 458.044 C 763.052 458.054 763.197 458.058 763.341 458.058 Z " fill="rgb(244,144,12)"/><circle vector-effect="non-scaling-stroke" cx="760.9128540153132" cy="451.97959792207826" r="1.106999999999971" fill="rgb(255,255,255)"/><path d=" M 751.659 458.058 C 748.65 458.058 746.068 456.088 745.165 453.343 C 744.004 454.797 743.468 456.306 743.65 457.72 C 743.835 459.143 744.729 460.341 746.106 461.005 C 747.409 461.634 749.244 462.023 750.979 461.914 C 751.992 461.85 752.972 461.617 753.792 461.162 C 755.023 460.481 755.755 459.387 755.908 457.999 C 755.968 457.457 756.008 456.957 756.044 456.463 C 754.941 457.386 753.574 457.95 752.094 458.043 C 751.948 458.054 751.803 458.058 751.659 458.058 Z " fill="rgb(255,255,255)"/><path d=" M 751.659 456.558 C 751.772 456.558 751.886 456.554 752 456.547 C 753.715 456.439 755.191 455.534 756.088 454.215 L 756.127 454.147 C 756.096 451.159 755.447 449.408 754.15 448.858 C 753.216 448.461 750.463 448.548 746.749 451.717 C 746.627 451.821 746.522 451.928 746.406 452.033 C 746.81 454.621 749.025 456.558 751.659 456.558 Z " fill="rgb(101,71,27)"/><path d=" M 756.126 454.147 L 756.087 454.215 C 755.19 455.534 753.714 456.439 751.999 456.547 C 751.885 456.554 751.771 456.558 751.658 456.558 C 749.024 456.558 746.809 454.621 746.405 452.034 C 745.935 452.463 745.518 452.9 745.164 453.343 C 746.067 456.088 748.649 458.058 751.658 458.058 C 751.802 458.058 751.947 458.053 752.093 458.044 C 753.573 457.951 754.94 457.387 756.043 456.464 C 756.105 455.623 756.134 454.85 756.126 454.147 Z " fill="rgb(244,144,12)"/><path d=" M 749.281 453.085 C 749.891 453.047 750.355 452.521 750.316 451.911 C 750.278 451.301 749.752 450.837 749.142 450.875 C 748.532 450.913 748.068 451.439 748.106 452.049 C 748.145 452.659 748.671 453.123 749.281 453.085 Z " fill="rgb(255,255,255)"/></g><path d=" M 772.306 449.949 L 768.761 450.4 L 770.849 453.193 C 771.276 453.817 772.029 454.188 772.832 454.085 C 773.974 453.94 774.782 452.897 774.637 451.754 C 774.492 450.613 773.449 449.804 772.306 449.949 Z " fill="rgb(93,173,236)"/><path d=" M 776.425 448.415 L 774.058 449.054 L 775.751 450.759 C 776.104 451.144 776.651 451.326 777.187 451.182 C 777.951 450.975 778.398 450.19 778.187 449.426 C 777.976 448.662 777.188 448.209 776.425 448.415 Z " fill="rgb(93,173,236)"/><path d=" M 742.694 449.949 L 746.239 450.4 L 744.151 453.193 C 743.724 453.817 742.971 454.188 742.168 454.085 C 741.026 453.94 740.218 452.897 740.363 451.754 C 740.508 450.613 741.551 449.804 742.694 449.949 Z " fill="rgb(93,173,236)"/><path d=" M 738.575 448.415 L 740.942 449.054 L 739.249 450.759 C 738.896 451.144 738.349 451.326 737.813 451.182 C 737.049 450.975 736.602 450.19 736.813 449.426 C 737.024 448.662 737.812 448.209 738.575 448.415 Z " fill="rgb(93,173,236)"/></svg>