<?xml version="1.0" encoding="UTF-8" standalone="no"?>
<!-- Generator: Gravit.io -->
<svg xmlns="http://www.w3.org/2000/svg" xmlns:xlink="http://www.w3.org/1999/xlink" style="isolation:isolate" viewBox="703.75 636.906 36 36" width="36pt" height="36pt"><g><circle vector-effect="non-scaling-stroke" cx="721.75" cy="654.90625" r="18" fill="rgb(255,204,77)"/><path d=" M 724.979 640.853 C 724.979 641.093 725.009 641.325 725.061 641.549 C 725.486 644.192 728.425 646.98 730.531 647.746 C 732.196 647.141 734.377 645.27 735.429 643.207 C 733.34 640.767 730.61 638.893 727.5 637.845 C 726.068 638.102 724.979 639.347 724.979 640.853 Z  M 717.493 665.984 C 717.55 665.742 717.583 665.49 717.583 665.23 C 717.583 663.397 716.097 661.911 714.264 661.911 C 713.151 661.911 712.17 662.46 711.567 663.3 C 710.965 662.461 709.983 661.911 708.87 661.911 C 707.629 661.911 706.559 662.6 705.99 663.609 C 707.814 666.904 710.64 669.566 714.058 671.183 C 715.695 669.832 717.189 667.876 717.493 665.984 Z " fill="rgb(255,172,51)"/><path d=" M 724.746 663.906 C 724.643 663.906 724.54 663.89 724.437 663.857 C 722.677 663.286 720.822 663.286 719.062 663.857 C 718.538 664.026 717.973 663.74 717.802 663.215 C 717.631 662.69 717.919 662.126 718.445 661.955 C 720.607 661.253 722.892 661.253 725.054 661.955 C 725.579 662.126 725.867 662.69 725.697 663.215 C 725.56 663.636 725.168 663.906 724.746 663.906 Z " fill="rgb(101,71,27)"/><g><circle vector-effect="non-scaling-stroke" cx="732.7499999999999" cy="659.90625" r="5" fill="rgb(255,120,146)"/><circle vector-effect="non-scaling-stroke" cx="710.75" cy="659.90625" r="5" fill="rgb(255,120,146)"/></g><path d=" M 734.085 648.974 C 733.182 651.719 730.6 653.689 727.591 653.689 C 727.447 653.689 727.302 653.684 727.156 653.675 C 725.679 653.582 724.314 653.02 723.206 652.091 C 723.242 652.586 723.282 653.088 723.342 653.631 C 723.494 655.019 724.226 656.113 725.458 656.794 C 726.278 657.248 727.258 657.482 728.271 657.546 C 730.005 657.655 731.841 657.266 733.144 656.637 C 734.521 655.972 735.416 654.775 735.6 653.352 C 735.783 651.937 735.246 650.428 734.085 648.974 Z " fill="rgb(255,255,255)"/><path d=" M 725.101 644.489 C 723.804 645.039 723.154 646.79 723.124 649.778 L 723.163 649.846 C 724.06 651.165 725.536 652.07 727.251 652.178 C 727.365 652.185 727.479 652.189 727.592 652.189 C 730.226 652.189 732.441 650.252 732.845 647.665 C 732.73 647.56 732.624 647.453 732.502 647.349 C 728.787 644.179 726.035 644.092 725.101 644.489 Z " fill="rgb(101,71,27)"/><path d=" M 727.591 653.689 C 730.6 653.689 733.182 651.719 734.085 648.974 C 733.731 648.531 733.314 648.094 732.844 647.665 C 732.44 650.252 730.225 652.189 727.591 652.189 C 727.478 652.189 727.364 652.185 727.25 652.178 C 725.535 652.07 724.059 651.165 723.162 649.846 L 723.123 649.778 C 723.116 650.479 723.144 651.251 723.206 652.091 C 724.314 653.02 725.679 653.582 727.156 653.675 C 727.302 653.685 727.447 653.689 727.591 653.689 Z " fill="rgb(244,144,12)"/><circle vector-effect="non-scaling-stroke" cx="725.1629999999996" cy="647.6112499999999" r="1.106999999999971" fill="rgb(255,255,255)"/><path d=" M 715.909 653.689 C 712.9 653.689 710.318 651.719 709.415 648.974 C 708.254 650.428 707.718 651.937 707.9 653.351 C 708.085 654.774 708.979 655.972 710.356 656.636 C 711.659 657.265 713.494 657.654 715.229 657.545 C 716.242 657.481 717.222 657.248 718.042 656.793 C 719.273 656.112 720.005 655.018 720.158 653.63 C 720.218 653.088 720.258 652.588 720.294 652.094 C 719.191 653.017 717.824 653.581 716.344 653.674 C 716.198 653.685 716.053 653.689 715.909 653.689 Z " fill="rgb(255,255,255)"/><path d=" M 715.909 652.189 C 716.022 652.189 716.136 652.185 716.25 652.178 C 717.965 652.07 719.441 651.165 720.338 649.846 L 720.377 649.778 C 720.346 646.79 719.697 645.039 718.4 644.489 C 717.466 644.092 714.713 644.179 710.999 647.348 C 710.877 647.452 710.772 647.559 710.656 647.664 C 711.06 650.252 713.275 652.189 715.909 652.189 Z " fill="rgb(101,71,27)"/><path d=" M 720.376 649.778 L 720.337 649.846 C 719.44 651.165 717.964 652.07 716.249 652.178 C 716.135 652.185 716.021 652.189 715.908 652.189 C 713.274 652.189 711.059 650.252 710.655 647.665 C 710.185 648.094 709.768 648.531 709.414 648.974 C 710.317 651.719 712.899 653.689 715.908 653.689 C 716.052 653.689 716.197 653.684 716.343 653.675 C 717.823 653.582 719.19 653.018 720.293 652.095 C 720.355 651.254 720.384 650.481 720.376 649.778 Z " fill="rgb(244,144,12)"/><path d=" M 713.531 648.716 C 714.141 648.678 714.605 648.152 714.566 647.542 C 714.528 646.932 714.002 646.468 713.392 646.506 C 712.782 646.544 712.318 647.07 712.356 647.68 C 712.395 648.29 712.921 648.754 713.531 648.716 Z " fill="rgb(255,255,255)"/><path d=" M 737.375 640.175 C 737.375 638.483 736.003 637.112 734.312 637.112 C 733.285 637.112 732.379 637.619 731.823 638.394 C 731.267 637.619 730.361 637.112 729.334 637.112 C 727.642 637.112 726.271 638.483 726.271 640.175 C 726.271 640.415 726.301 640.647 726.353 640.871 C 726.779 643.514 729.717 646.302 731.823 647.068 C 733.929 646.302 736.867 643.514 737.292 640.872 C 737.345 640.647 737.375 640.415 737.375 640.175 Z  M 715.958 665.314 C 715.958 663.481 714.472 661.995 712.639 661.995 C 711.526 661.995 710.545 662.544 709.942 663.384 C 709.34 662.544 708.358 661.995 707.245 661.995 C 705.412 661.995 703.926 663.481 703.926 665.314 C 703.926 665.574 703.959 665.825 704.015 666.068 C 704.476 668.931 707.659 671.952 709.941 672.782 C 712.223 671.953 715.406 668.932 715.867 666.069 C 715.925 665.825 715.958 665.573 715.958 665.314 Z " fill="rgb(221,46,68)"/></g></svg>